<?xml version="1.0" encoding="UTF-8" standalone="no"?>
<!-- Created with Inkscape (http://www.inkscape.org/) -->

<svg
   xmlns:dc="http://purl.org/dc/elements/1.1/"
   xmlns:cc="http://creativecommons.org/ns#"
   xmlns:rdf="http://www.w3.org/1999/02/22-rdf-syntax-ns#"
   xmlns:svg="http://www.w3.org/2000/svg"
   xmlns="http://www.w3.org/2000/svg"
   version="1.0"
   width="500"
   height="500"
   id="svg2">
  <metadata
     id="metadata7">
    <rdf:RDF>
      <cc:Work
         rdf:about="">
        <dc:format>image/svg+xml</dc:format>
        <dc:type
           rdf:resource="http://purl.org/dc/dcmitype/StillImage" />
        <dc:title></dc:title>
      </cc:Work>
    </rdf:RDF>
  </metadata>
  <defs
     id="defs5" />
  <g
     id="g3039">
    <path
       d="M 72.430324,426.80336 0,353.60672 0,249.87117 0,146.13561 73.062534,73.067807 146.12504,0 249.35846,0 352.59188,0 426.29594,72.937657 500,145.87532 l 0,103.99982 0,103.99982 -73.06781,73.06251 -73.0678,73.06253 -104.50188,0 -104.50189,0 z m 341.393746,-13.74593 66.82766,-67.5943 0,-95.46504 0,-95.46506 -67.33491,-68.101543 -67.33491,-68.101547 -95.84963,0 -95.84963,0 -67.976356,67.970667 -67.976354,67.970673 0,95.72302 0,95.72301 67.461494,67.46721 67.461476,67.46721 96.87175,0 96.87176,0 z M 91.901314,408.09279 26.47658,342.66215 l 0,-92.7946 0,-92.79461 66.064914,-65.298183 66.064916,-65.298177 91.39359,0 91.39359,0 66.06492,65.298177 66.06491,65.298183 0,92.79461 0,92.7946 -65.42473,65.43064 -65.42475,65.43063 -92.67394,0 -92.67394,0 z m 311.099726,-5.08566 63.39407,-63.38799 0,-89.61305 0,-89.61307 -63.38798,-63.394063 -63.38799,-63.394067 -90.12833,0 -90.12834,0 -62.870586,62.881867 -62.870594,62.881883 -0.02993,90.60658 -0.02991,90.60658 62.900514,62.90666 62.900506,62.90665 90.12226,0 90.12225,0 z"
       id="path1308"
       style="fill:#000000" />
    <g
       transform="matrix(0.52454134,0,0,0.527178,95.000162,91.712108)"
       id="Ebene_2_1_">
      <path
         d="m 252.28906,597.12549 c -2.51562,-1.0332 -5.18164,-3.73047 -6.12304,-6.19141 -1.85791,-4.85937 6.23974,-16.74023 15.66259,-22.98242 5.75293,-3.81055 7.64844,-6.34375 9.86768,-13.18164 2.74316,-8.45313 4.16211,-30.93164 2.4624,-39 -0.81006,-3.8418 -1.36963,-12.63086 -1.36963,-21.5 0,-18.375 -2.87842,-52.48828 -5.56885,-66 -1.09521,-5.5 -2.90478,-14.94922 -4.02148,-21 -2.0874,-11.30664 -5.05225,-21.09766 -7.72217,-25.5 -7.54687,-12.44141 -13.87988,-20.42773 -23.1875,-29.24023 -10.29736,-9.74805 -14.15185,-12.40235 -16.18603,-11.14454 -3.6958,2.28321 -5.04932,16.25782 -2.25196,23.24805 1.41504,3.53711 1.41553,4.2207 0.002,7.26953 -0.85791,1.85156 -2.34864,4.53711 -3.31201,5.96875 -4.77002,7.08008 -5.95948,8.73047 -9.30079,12.89844 -3.28125,4.09375 -10.95117,16.44727 -10.95117,17.63672 0,0.86914 -10.09912,17.62695 -12.59472,20.89844 -1.32276,1.73437 -2.40528,3.5332 -2.40528,3.99414 0,0.46289 -0.82129,1.77148 -1.82519,2.90625 -1.00391,1.13476 -3.94873,5.43945 -6.54444,9.56445 -2.5957,4.125 -6.5249,9.97461 -8.73095,13 -2.20655,3.02539 -4.94678,7.30078 -6.08985,9.5 -1.14306,2.19922 -3.83008,6.10156 -5.9707,8.66992 -4.74414,5.69336 -11.70752,18.71094 -13.28272,24.83008 -0.63671,2.47461 -0.88378,5.84961 -0.54882,7.5 1.18506,5.83789 -1.88526,10.5 -6.91602,10.5 -2.53857,0 -4.31787,3.32812 -8.06689,15.08789 -1.78125,5.58789 -3.98438,10.24219 -5.86084,12.37891 -2.2793,2.5957 -3.17823,4.82617 -3.71875,9.22851 -0.39209,3.19336 -1.10352,6.84961 -1.58155,8.12696 -1.27441,3.40625 -17.315426,22.5957 -22.31152,26.68945 -6.062011,4.9668 -11.320312,5.1289 -18.428711,0.5664 -12.435058,-7.97851 -10.801269,-17.43164 5.376954,-31.11718 14.491699,-12.25977 22.346191,-24.26758 25.587402,-39.11914 2.022461,-9.26563 6.634765,-24.68555 7.879395,-26.3418 0.41357,-0.55078 1.58789,-3.25 2.60986,-6 1.02198,-2.75 2.88526,-6.52539 4.14063,-8.38867 1.25537,-1.86524 2.28271,-3.92969 2.28271,-4.58985 0,-1.16406 5.07764,-11.34179 15.97461,-32.02148 5.90283,-11.20117 9.91553,-21.0332 17.54883,-43 2.8667,-8.25 6.44434,-18.35547 7.9502,-22.45508 2.60644,-7.09765 2.71777,-8.1289 2.31201,-21.5 -0.4209,-13.86914 -0.48438,-14.19531 -5.05909,-26.04492 -11.16308,-28.91748 -12.68554,-35.80908 -13.60156,-61.58252 l -0.625,-17.58203 -3.93554,-6.41797 c -2.16407,-3.5293 -5.90332,-8.85449 -8.30957,-11.83203 -6.65479,-8.23828 -7.5752,-10.52051 -6.85596,-17 0.57275,-5.15625 0.35058,-6.03125 -2.88965,-11.38574 -1.93018,-3.18946 -3.50928,-6.20411 -3.50928,-6.69922 0,-2.39942 -13.109861,-9.98731 -19.790037,-11.4541 -4.069824,-0.89454 -8.063964,1.24511 -16.169921,8.66211 -3.552735,3.25097 -9.736817,7.95312 -13.7417,10.44921 -6.552246,4.08399 -8.094238,4.6084 -15.385254,5.23536 -9.843261,0.8457 -12.28125,-0.0684 -12.734863,-4.77539 -0.397461,-4.12403 2.34375,-7.35059 7.607422,-8.95508 7.628418,-2.3252 12.880859,-7.2168 11.539063,-10.74805 -0.263672,-0.69434 -4.446778,-1.07031 -11.618653,-1.04395 -10.350586,0.0371 -11.760254,-0.19628 -18.464355,-3.05957 -12.365723,-5.28027 -23.695801,-16.27539 -23.5292971,-22.833 0.0419922,-1.66211 1.1367188,-4.79297 2.4321289,-6.95703 2.4951172,-4.16895 18.4331052,-20.65528 25.6455082,-26.52832 2.359863,-1.9209 5.017578,-4.84278 5.906738,-6.49317 2.380371,-4.41797 4.280273,-16.66699 3.275879,-21.121093 -1.492676,-6.617187 3.74414,-13.877929 17.810547,-24.693359 19.460937,-14.963867 31.000488,-20.40332 46.160644,-21.758789 23.68555,-2.119141 27.50879,-1.15918 42.55615,10.677734 6.72656,5.291993 9.78272,6.395508 17.70313,6.395508 23.57519,0 42.48584,16.098633 35.27978,30.033203 -0.83398,1.613286 -1.78369,4.879886 -2.10937,7.258786 -0.57959,4.22754 -0.42774,4.51953 6.65088,12.76758 3.98437,4.64258 7.74609,8.71777 8.35986,9.05664 1.7666,0.97656 22.56543,2.11719 41.11572,2.25684 9.34961,0.0703 21.83399,0.78027 27.74219,1.5791 13.19824,1.7832 17.55273,1.0498 36.25488,-6.11035 7.15137,-2.73731 15.25293,-5.39746 18.00293,-5.91113 2.75,-0.51368 9.72461,-2.47852 15.5,-4.36524 28.5,-9.3125 70.78321,-15.02832 106.23438,-14.3623 11.87207,0.22363 27.74023,3.60254 30.76562,4.81445 3.02442,1.21191 7.97461,3.33887 11,4.72656 5.5293,2.53711 8.55176,3.50879 17.17188,5.52637 4.13281,0.9668 5.38574,0.8125 10.8584,-1.33887 13.20898,-5.19043 19.30566,-16.512205 24.62988,-24.645506 13.02246,-19.897461 0.12598,-49.470703 -14.66016,-58.615235 -8.06152,-4.984375 -20.68554,-6.474609 -27.5,-3.24414 -6.24316,2.958008 -9.5,5.745117 -9.5,8.126953 0,2.772461 3.35645,7.0625 7.00098,8.947266 3.25684,1.68457 9.99902,14.766601 9.99902,19.402343 0,4.016602 -3.49804,8.09668 -6.94043,8.09668 -5.60058,0 -24.65136,-11.369141 -30.50781,-18.207031 -4.10352,-4.791016 -6.55176,-11.824219 -6.55176,-15.401367 0,-1.294922 0.7959,-6.241211 2.99024,-10.992188 7.99218,-17.297851 23.90527,-27.9111326 43.65332,-29.1142576 10.90918,-0.6650391 26.27929,4.9091797 33.01465,9.0878906 13.66894,8.482422 25.32519,21.878906 30.56347,35.126953 10.79395,27.297363 -1.02929,57.312499 -6.14648,64.999999 -1.46387,2.2002 -12.61621,20.11621 -22.72266,30.27051 -4.52637,4.54785 -8.50293,9.12793 -8.83594,10.17676 -0.95019,2.99511 1.77149,7.94238 8.73926,15.88574 6.75781,7.7041 8.59082,11.65234 12.71778,27.39941 4.17968,15.9502 2.19824,40.79785 -6.88184,86.26758 -1.09863,5.5 -2.50391,14.5 -3.12305,20 -0.61914,5.5 -1.54101,12.44531 -2.04785,15.43408 -1.73144,10.21485 -0.43652,23.49024 3.69629,37.88282 0.83984,2.92382 2.15039,7.71093 2.91211,10.63671 3.03711,11.66016 15.6416,33.40235 25.19141,43.45508 6.82324,7.1836 7.96484,10.03711 6.30859,15.77735 -1.79785,6.23047 -3.45313,83.27734 -1.97754,92.02343 1.19238,7.06446 0.80664,13.68946 -0.99512,17.08399 -0.49804,0.93945 -1.46386,3.90039 -2.1455,6.58008 -0.84864,3.33398 -2.61133,6.32617 -5.57618,9.46289 -2.38379,2.52539 -4.33496,5.08593 -4.33496,5.68945 0,0.60547 -1.33398,2.37891 -2.96484,3.94141 -2.28125,2.18554 -3.97461,2.86132 -7.3457,2.9375 -5.96192,0.13086 -7.68946,-1.53321 -7.68946,-7.4043 0,-2.61524 -0.71386,-6.46289 -1.58496,-8.54883 -1.51172,-3.61719 -1.44433,-4.42773 1.44043,-17.37305 10.87207,-48.78515 9.20117,-67.72461 -9.40625,-106.57812 -6.20312,-12.95313 -8.33496,-16.25195 -15.58008,-24.10547 -2.58984,-2.80859 -6.26757,-7.54102 -8.17187,-10.51953 -6.50391,-10.16602 -11.70508,-14.19922 -11.69336,-9.06641 0.002,0.92969 1.36914,5.29102 3.03906,9.69141 1.66992,4.40039 4.36426,11.82422 5.98926,16.5 1.62402,4.67578 5.43066,13.33594 8.45996,19.24609 5.75488,11.22852 6.50195,14.85157 4.49023,21.75977 -2.74609,9.43359 -5.24121,24.83203 -5.99218,36.99414 -0.61817,9.99609 -1.48145,15.45117 -3.32715,21.01953 -1.3711,4.13672 -2.97754,10.88672 -3.56934,15 -0.59277,4.11523 -1.73633,9.28125 -2.54199,11.48047 -0.80469,2.19922 -1.48437,6.15625 -1.50781,8.78906 -0.0547,5.98828 -3.11035,12.17578 -7.00391,14.19141 -4.04883,2.09179 -23.95312,2.13281 -27.96875,0.0566 -4.42773,-2.28906 -4.6543,-4.35938 -1.61426,-14.76758 1.8877,-6.46484 1.94239,-6.51953 9.42676,-9.2832 5.06641,-1.8711 5.69141,-2.47266 8.82617,-8.5 3.34961,-6.43946 3.37793,-6.60938 3.93946,-23.48633 0.58593,-17.61328 0.45898,-18.9043 -4.63086,-47 -1.09571,-6.05078 -1.99805,-12.67188 -2.00586,-14.71484 -0.0244,-6.9375 -5.56348,-19.87305 -14.25879,-33.29493 -8.51465,-13.14648 -16.71485,-31.46679 -20.17969,-45.09179 -0.85351,-3.35547 -2.29004,-7.85547 -3.19238,-10 -0.90137,-2.14453 -4.11133,-10.87305 -7.13184,-19.39844 -3.02051,-8.52539 -6.61914,-18.6499 -7.99609,-22.50049 -3.55371,-9.93164 -4.04297,-19.48144 -1.3584,-26.5 1.15625,-3.02441 2.10352,-6.44238 2.10352,-7.59473 9.7e-4,-3.15234 -3.40235,-5.77148 -6.49317,-4.99609 -2.57715,0.64746 -3.16894,1.625 -5.49902,9.09082 -1.80957,5.79981 -5.62305,10.5 -8.51856,10.5 -2.67285,0 -5.73535,-2.81348 -7.46386,-6.85449 -1.73731,-4.06445 -7.73047,-8.14746 -11.93555,-8.13184 -7.03906,0.0254 -21.65039,3.79004 -29.58887,7.62207 -8.15625,3.9375 -13.38672,8.46582 -20.78222,17.99317 -9.78711,12.60937 -13.94922,17.32715 -20.33008,23.04541 -7.20508,6.45898 -25.76465,20.32617 -27.20508,20.32617 -1.54785,0 -5.18262,4.61328 -5.18262,6.58008 0,1.07226 0.89942,3.6289 2,5.68164 2.67871,4.99804 2.53418,8.15625 -1.02148,22.25781 l -3.02149,11.98047 1.02442,40 c 1.36133,53.20117 2.6416,71.29883 6.10351,86.28906 2.49805,10.8125 2.4502,11.64453 -1.07715,18.875 -4.66113,9.55274 -6.50195,20.01953 -7.93066,45.10352 -0.98144,17.23437 -1.79492,19.44726 -7.81738,21.27343 -4.07862,1.23633 -34.81006,2.32032 -37.25977,1.31446 z M 203.08887,323.5708 c 2.54052,-2.54101 1.37304,-6.54883 -2.91162,-9.99414 -2.26123,-1.81885 -7.24659,-6.11963 -11.07862,-9.55713 -3.85254,-3.45508 -7.90283,-6.25 -9.05957,-6.25 -5.53222,0 -7.83105,8.15625 -3.57568,12.68555 1.1958,1.27344 2.56396,2.31494 3.04053,2.31494 0.8872,0 3.37548,1.67773 12.23339,8.24609 5.13575,3.80664 9.18653,4.71875 11.35157,2.55469 z"
         id="path2747" />
    </g>
  </g>
</svg>
