<?xml version="1.0" encoding="UTF-8"?>
<!-- Inkscape -->
<svg xmlns="http://www.w3.org/2000/svg" width="500" height="500">
<path
d="M72.430321,426.80336 L 0,353.60672 L 0,249.87117 L 0,146.13561 L 73.062531,73.067806 L 146.12504,0 L 249.35846,0 L 352.59188,0 L 426.29594,72.937656 L 500,145.87532 L 500,249.87514 L 500,353.87496 L 426.93219,426.93747 L 353.86439,500 L 249.3625,500 L 144.86062,500 L 72.430321,426.80336 z
M413.82407,413.05743 L 480.65173,345.46313 L 480.65173,249.99809 L 480.65173,154.53304 L 413.31682,86.431486 L 345.98191,18.329939 L 250.13228,18.329939 L 154.28265,18.329939 L 86.306291,86.300606 L 18.329939,154.27128 L 18.329939,249.9943 L 18.329939,345.71731 L 85.791431,413.18452 L 153.25291,480.65173 L 250.12466,480.65173 L 346.99641,480.65173 L 413.82407,413.05743 z
M91.901311,408.09279 L 26.476581,342.66215 L 26.476581,249.86755 L 26.476581,157.07294 L 92.541491,91.774756 L 158.6064,26.476575 L 250,26.476575 L 341.39359,26.476575 L 407.45851,91.774756 L 473.52342,157.07294 L 473.52342,249.86755 L 473.52342,342.66215 L 408.09869,408.09279 L 342.67394,473.52342 L 250,473.52342 L 157.32606,473.52342 L 91.901311,408.09279 z
M361.26034,445.26477 C 385.34647,422.04476 385.12608,422.48978 371.4916,424.60523 C 362.98755,425.92468 362.99277,425.9287 361.99498,417.33161 C 361.38637,412.08782 361.61149,410.89699 363.97325,406.86695 C 365.43901,404.36581 367.3072,401.94507 368.12479,401.48754 C 369.26329,400.8504 369.97213,395.8944 371.15264,380.31764 C 372.00039,369.13173 372.69731,359.63595 372.70137,359.21589 C 372.71793,357.50268 367.29947,358.67707 356.99833,362.61937 C 354.23844,363.67558 351.91222,364.43023 351.82893,364.29635 C 351.74565,364.16249 350.65453,362.35147 349.40423,360.27186 L 347.13094,356.49077 L 341.56777,362.05394 C 338.50802,365.11369 335.44097,367.61711 334.75208,367.61711 C 334.0632,367.61711 332.39061,365.52672 331.03522,362.97179 C 328.18483,357.59874 319.41159,349.28717 316.59048,349.28717 C 315.53089,349.28717 314.66395,349.66621 314.66395,350.12948 C 314.66395,351.34089 302.7441,353.36311 295.70743,353.34548 C 292.36998,353.33712 288.58689,352.6797 287.16904,351.86171 C 285.76884,351.05389 283.70672,349.96762 282.58656,349.44776 C 281.46639,348.92791 279.67694,347.53348 278.60999,346.34904 C 277.54304,345.1646 275.62948,344.19552 274.35764,344.19552 C 269.61673,344.19552 248.26945,356.05734 240.07609,363.24439 C 232.87472,369.56128 217.00896,387.00191 214.22687,391.65945 C 213.17424,393.42168 212.9214,393.26151 211.23786,389.76578 C 210.22635,387.66548 209.13994,385.94727 208.82361,385.94755 C 208.04659,385.94822 199.69909,395.69478 196.64476,400.16761 C 192.64532,406.02447 190.45787,411.83618 189.76777,418.43877 L 189.11924,424.64358 L 178.13595,424.64358 L 167.15266,424.64358 L 166.44492,418.97903 C 165.2408,409.34162 166.73744,399.42852 170.35575,393.07536 C 175.26195,384.46088 178.1877,381.72703 200.3294,365.06763 C 211.6562,356.54536 220.66185,349.31087 220.34196,348.99099 C 220.02209,348.6711 220.27556,346.00707 220.90525,343.07091 C 222.36966,336.24262 221.4295,335.16241 215.90932,337.3308 L 211.78872,338.94942 L 213.58275,335.9045 C 215.42608,332.77591 221.25695,325.35992 225.55646,320.67573 C 227.01546,319.08619 231.15531,316.96725 235.93669,315.36272 C 240.31102,313.89478 243.28396,312.67878 242.54323,312.66051 C 240.60452,312.61269 217.07004,300.90758 205.65347,294.31302 C 199.33944,290.66585 193.43618,286.19715 188.81729,281.56823 C 182.39107,275.12807 181.23533,273.30939 176.84522,262.72912 C 169.432,244.86306 168.50041,242.66569 163.4616,231.1609 C 155.01624,211.87816 147.14582,202.92884 137.68628,201.85224 C 134.08145,201.44197 132.86579,201.77731 130.74901,203.76594 C 126.44638,207.80805 124.42352,212.03068 123.69485,218.49125 C 123.03458,224.34523 123.21618,225.09267 127.24613,233.10783 C 129.58205,237.75375 131.34973,241.62209 131.17433,241.70416 C 128.91766,242.75991 108.55494,249.42391 108.31593,249.18491 C 108.13694,249.00592 107.52086,245.54805 106.94684,241.50074 C 106.37283,237.45344 104.75827,231.88263 103.35893,229.12115 C 101.94643,226.33371 100.81466,222.34423 100.81466,220.15254 C 100.81466,216.48018 103.34901,207.56233 105.67016,203.06704 C 106.22305,201.99625 108.61406,197.07362 110.98349,192.12783 C 116.79218,180.00322 118.58916,178.87772 130.8554,179.68154 C 139.36952,180.23948 152.73092,182.99734 155.9442,184.86 C 156.70747,185.30245 156.19992,184.42247 154.81629,182.90448 C 152.25353,180.09284 143.80587,173.92907 138.45694,170.96803 C 136.82864,170.06663 133.90993,168.11907 131.97093,166.64012 C 130.03192,165.16117 128.12593,163.95112 127.73539,163.95112 C 127.34485,163.95112 124.79284,162.34725 122.06428,160.38697 C 119.3357,158.42668 116.60929,156.82281 116.00558,156.82281 C 115.40187,156.82281 110.86315,154.05249 105.91952,150.66653 C 96.530091,144.23558 91.888791,142.73334 76.109651,141.01803 C 69.657321,140.31661 64.154791,136.76911 64.154791,133.3107 C 64.154791,132.24033 63.811101,131.37889 63.391041,131.39641 C 62.970981,131.41392 56.083051,137.71484 48.084541,145.39844 L 33.541791,159.36864 L 33.551621,249.97522 L 33.561451,340.5818 L 96.461961,403.48846 L 159.36247,466.39511 L 249.35214,466.39511 L 339.3418,466.39511 L 361.26034,445.26477 z
M466.39511,250.00792 L 466.39511,160.39303 L 403.00713,96.998956 L 339.61914,33.604886 L 249.49389,33.563646 L 159.36864,33.522396 L 117.94627,75.569756 C 76.649791,117.48932 76.532191,117.62084 79.249741,118.84409 C 80.748941,119.51893 83.149791,120.09174 84.584941,120.11701 C 87.503361,120.16837 102.81988,125.14952 107.47387,127.56082 C 109.13208,128.41995 111.77194,130.31403 113.34023,131.76988 C 116.11068,134.34171 120.47847,137.13695 128.78749,141.65561 C 131.01063,142.86461 133.98925,144.63104 135.40664,145.581 C 147.00454,153.35416 160.81194,161.42315 161.31527,160.72189 C 161.44749,160.53769 162.53046,158.97299 163.72186,157.24481 C 165.54954,154.59367 167.28825,153.73451 174.8483,151.74687 C 179.77644,150.4512 185.40424,148.31375 187.35451,146.99698 C 189.3048,145.68021 191.41045,144.60285 192.03376,144.60285 C 192.65706,144.60285 193.9878,143.69591 194.99097,142.58742 C 196.4545,140.97023 196.536,140.47792 195.40338,140.09593 C 183.75517,136.16735 175.62771,133.17254 173.18181,131.90771 C 168.97234,129.73092 160.58967,129.96086 153.59272,132.44506 C 145.47937,135.32563 140.46988,134.82224 138.61779,130.94029 C 136.61045,126.73292 138.09957,123.21097 142.56619,121.60186 C 144.52648,120.89567 145.31229,120.28302 144.31244,120.24041 C 140.97972,120.09838 137.54673,117.00081 136.89972,113.55196 C 136.19539,109.79751 137.404,106.84252 141.41771,102.50583 C 144.93455,98.705976 148.20842,97.075286 158.75845,93.868496 C 166.40785,91.543386 169.35035,91.202586 182.02586,91.173656 L 196.53644,91.140526 L 196.53706,88.464476 C 196.53781,85.205526 194.09514,79.157326 191.19274,75.231606 C 190.01142,73.633786 189.26276,72.108596 189.52906,71.842286 C 190.57702,70.794336 201.00773,74.354976 203.38003,76.570476 C 204.76406,77.863026 207.04202,80.868126 208.44214,83.248466 C 209.84227,85.628816 211.18451,87.576376 211.4249,87.576376 C 211.66529,87.576376 216.31236,83.386706 221.75172,78.266016 C 234.23835,66.510916 239.20527,62.871516 257.27535,52.236866 C 267.82322,46.029226 284.17767,43.735916 291.47436,47.441316 C 295.04271,49.253396 302.2727,54.806006 306.6596,59.103526 C 312.39062,64.717776 315.16113,75.311046 312.63568,81.953496 C 311.28263,85.512296 304.48631,91.638766 301.88472,91.644826 C 300.09813,91.648986 299.85792,91.136106 300.2148,88.079236 C 301.02288,81.157386 299.73209,77.963616 295.04884,75.297266 C 291.28693,73.155466 289.42659,72.838306 280.5499,72.825396 C 270.36852,72.810586 270.36524,72.811406 263.19356,77.129866 C 255.95184,81.490516 247.30546,89.193086 243.23442,94.910326 L 241.02154,98.018036 L 243.98328,96.155926 C 245.61223,95.131766 248.54888,93.094996 250.50916,91.629766 C 258.06297,85.983616 264.35362,83.503056 271.11833,83.503056 C 279.30248,83.503056 283.09524,84.626506 287.8881,88.470406 C 290.01298,90.174586 293.64673,92.235656 295.96308,93.050576 C 302.40388,95.316506 307.91286,99.180346 312.25095,104.4744 C 316.14351,109.22478 316.18696,109.37457 316.18223,118.02997 C 316.17812,125.53738 315.79311,127.50619 313.47496,131.87373 C 311.9886,134.67414 309.24226,138.43565 307.37199,140.23267 L 303.97149,143.49995 L 304.30785,135.86677 C 304.62173,128.74383 304.42744,127.8958 301.40128,123.17994 C 299.61768,120.40042 297.8148,118.12627 297.39489,118.12627 C 296.97497,118.12627 295.39526,116.98065 293.88442,115.58045 C 292.37357,114.18025 290.22178,113.03462 289.10267,113.03462 C 287.98354,113.03462 285.63388,112.29307 283.88119,111.38671 C 279.53723,109.14037 272.59616,109.32087 265.27495,111.87057 C 247.6307,118.0154 248.31568,117.67318 250.25566,119.37411 C 253.69904,122.39321 258.60108,124.23625 263.18772,124.23625 C 265.7359,124.23625 267.82077,124.50766 267.82077,124.83938 C 267.82077,126.0547 263.52238,130.86076 260.87232,132.60851 C 259.3732,133.5972 256.54277,134.46185 254.58248,134.52995 L 251.01833,134.65377 L 255.09165,135.64528 C 257.33198,136.1906 262.30301,136.93984 266.1384,137.31025 L 273.11182,137.98371 L 270.80725,140.904 C 269.53973,142.51016 267.20883,144.36832 265.62746,145.03324 C 262.78469,146.22852 262.82604,146.26327 269.2894,148.11165 C 275.763,149.96296 275.81159,150.00398 274.28688,152.33097 C 273.44007,153.62337 270.72227,155.45414 268.24733,156.39932 C 265.7724,157.3445 263.74745,158.45203 263.74745,158.86049 C 263.74745,160.22608 267.953,164.9694 269.1676,164.97372 C 269.82705,164.97606 272.49746,166.05917 275.10184,167.38061 L 279.83709,169.78326 L 273.2996,172.468 C 269.70398,173.94461 266.08382,175.15275 265.25479,175.15275 C 264.22291,175.15275 263.74745,176.23224 263.74745,178.57506 C 263.74745,181.92308 263.85812,182.01048 268.84507,182.60111 C 272.14748,182.99223 275.23501,184.19055 277.61233,186.00382 L 281.28196,188.80278 L 278.94072,190.69861 C 277.26465,192.05582 275.28627,192.51368 271.97728,192.31019 L 267.35507,192.02595 L 265.03291,200.64638 C 260.5972,217.11279 260.37415,218.75238 261.71209,225.05702 C 263.33167,232.68881 268.78458,240.07 275.00402,243.04931 C 280.75844,245.80585 291.64268,248.75565 310.08147,252.55589 C 317.92261,254.17194 326.36039,256.21158 328.83208,257.08841 C 333.75844,258.83605 340.58071,263.96802 346.445,270.33755 C 349.87829,274.06663 350.22577,274.22835 350.26374,272.11483 C 350.33134,268.3507 355.07984,260.03877 358.59086,257.53869 C 361.46014,255.49559 363.10371,255.21671 372.62104,255.15807 C 382.6767,255.09611 383.68634,255.27709 387.64352,257.85079 C 394.02818,262.0033 394.05876,262.85246 387.79986,262.19144 C 380.15325,261.38384 377.65807,262.95213 375.85418,269.69962 C 374.08328,276.32374 368.91527,280.9738 360.18224,283.80095 L 354.27488,285.71334 L 356.79326,289.42439 C 361.26846,296.01896 363.57067,302.61726 364.80432,312.38467 C 366.00367,321.88051 366.0301,321.94298 368.59668,321.3455 C 376.0807,319.60328 385.26705,318.57408 388.28322,319.13992 C 392.6285,319.9551 397.82996,325.01347 399.27193,329.82638 C 401.5645,337.47828 399.01506,367.53276 394.51136,385.94705 C 393.07304,391.8279 390.81869,401.64615 389.50168,407.76539 L 387.10713,418.89126 L 426.75112,379.25705 L 466.39511,339.62283 L 466.39511,250.00792 z"/>
</svg>