<?xml version="1.0" encoding="UTF-8"?>
<!-- Inkscape -->
<svg xmlns="http://www.w3.org/2000/svg" width="500" height="500">
<path
d="M 72.43031,426.80336 L 0,353.60672 L 0,249.87117 L 0,146.13561 L 73.06252,73.06781 L 146.12504,-1.1368684e-013 L 249.35846,-1.1368684e-013 L 352.59188,-1.1368684e-013 L 426.29594,72.93766 L 500,145.87532 L 500,249.87514 L 500,353.87496 L 426.93219,426.93747 L 353.86439,500 L 249.36251,500 L 144.86062,500 L 72.43031,426.80336 z
M 413.82407,413.05743 L 480.65173,345.46313 L 480.65173,249.99809 L 480.65173,154.53303 L 413.31682,86.43149 L 345.98191,18.32994 L 250.13228,18.32994 L 154.28265,18.32994 L 86.30629,86.30061 L 18.32994,154.27128 L 18.32994,201.31179 C 18.32994,235.77065 18.64439,248.54665 19.50561,249.07891 C 20.22637,249.52437 20.40516,249.35875 19.96768,248.6509 C 19.14113,247.31349 20.67162,244.09292 24.08205,239.99315 L 26.47658,237.11461 L 26.47658,197.09378 L 26.47658,157.07294 L 92.54149,91.77477 L 158.60641,26.47658 L 250,26.47658 L 341.39359,26.47658 L 407.45851,91.77477 L 473.52342,157.07294 L 473.52342,249.86755 L 473.52342,342.66215 L 408.09869,408.09279 L 342.67394,473.52342 L 250,473.52342 L 157.32606,473.52342 L 91.90131,408.09279 L 26.47658,342.66215 L 26.47658,297.80895 L 26.47658,252.95575 L 22.40649,253.00538 L 18.3364,253.05499 L 18.33317,299.38615 L 18.32994,345.71731 L 85.79143,413.18452 L 153.25291,480.65173 L 250.12466,480.65173 L 346.99642,480.65173 L 413.82407,413.05743 z
M 368.63544,437.37271 L 397.64444,408.35031 L 390.13869,408.35031 L 382.63293,408.35031 L 383.12352,403.51324 C 383.47535,400.04437 385.08167,396.27622 388.80246,390.19151 C 395.52834,379.19249 396.57327,375.9272 396.51536,366.08961 C 396.41652,349.29759 395.10368,330.00974 393.69948,324.71939 C 391.63718,316.9496 391.26903,316.23559 388.12793,313.91327 C 384.77798,311.43655 370.16188,304.48065 368.30761,304.48065 C 367.59178,304.48065 366.57077,304.05851 366.0387,303.54258 C 364.72207,302.26587 352.90169,298.37067 350.34401,298.37067 C 346.5437,298.37067 349.23092,304.61685 356.84179,313.47419 C 359.40773,316.46035 361.50713,319.46321 361.50713,320.1472 C 361.50713,322.13842 353.95701,337.09074 350.03123,342.87416 C 348.05336,345.78795 344.47939,350.49132 342.08907,353.32609 C 337.57084,358.68446 334.49321,363.37484 326.19931,377.54251 C 323.4954,382.16134 320.73584,385.94189 320.06697,385.94373 C 319.3981,385.94555 317.62023,387.00557 316.11616,388.29932 C 312.90176,391.06423 310.92816,399.72452 313.30463,400.63646 C 314.05226,400.92335 314.66395,401.85983 314.66395,402.71754 C 314.66395,404.04091 312.58279,404.27699 300.9165,404.27699 C 284.99263,404.27699 284.40624,403.79878 290.71185,395.95493 C 292.6604,393.53104 296.09323,389.16709 298.34036,386.25725 C 300.58749,383.34741 303.05967,380.59792 303.83408,380.14727 C 304.60849,379.69662 309.02022,373.37067 313.63792,366.08961 C 318.25562,358.80855 324.04153,350.01971 326.49548,346.55887 C 328.94944,343.09801 330.95723,339.57892 330.95723,338.73867 C 330.95723,337.89841 332.94309,332.93227 335.37025,327.70281 C 338.67031,320.59264 339.50498,317.85598 338.67983,316.8517 C 336.59411,314.31326 329.96883,308.24736 328.05978,307.12834 C 322.05275,303.60723 309.92774,294.82243 308.74584,293.13504 C 307.98567,292.04975 306.21049,289.91974 304.801,288.40167 C 303.39151,286.8836 301.15157,283.80855 299.82337,281.56823 C 298.49516,279.3279 295.76826,276.38854 293.76357,275.03631 C 290.51983,272.8483 289.13136,272.5995 281.14745,272.7757 C 276.21328,272.88459 270.63065,273.41695 268.74163,273.95871 C 263.07178,275.5848 229.49206,276.33829 221.99593,275.00762 C 218.3554,274.36137 212.72898,273.42945 209.49279,272.93667 C 206.25659,272.44388 201.6741,271.35656 199.30949,270.52039 C 196.94487,269.68422 191.57332,267.97633 187.37271,266.7251 C 171.732,262.06622 151.09285,253.84523 136.45621,246.44402 C 133.37576,244.88635 129.83673,243.30385 128.59169,242.92733 C 127.34666,242.55081 122.62924,240.14718 118.10853,237.58592 L 109.88907,232.92907 L 105.75182,234.79471 C 100.98956,236.94219 91.2518,247.8365 88.46285,254.13706 C 87.45565,256.41244 85.93463,260.99493 85.0828,264.32036 C 83.90926,268.90171 82.67318,271.10676 79.98094,273.42159 L 76.42785,276.47658 L 78.08739,282.62617 C 79.53324,287.98391 79.5626,289.15881 78.31542,291.75049 C 76.76465,294.97302 65.97212,301.72595 63.21123,301.20122 C 61.29774,300.83756 60.37597,290.06047 61.97092,286.69985 C 62.51298,285.5577 64.59021,280.49898 66.58699,275.45825 C 70.86795,264.6512 78.27238,249.21311 82.94879,241.3442 C 84.77947,238.26375 88.88913,231.33229 92.08137,225.94096 C 100.0001,212.56716 101.61178,211.81729 115.87407,214.87093 C 121.53427,216.0828 126.95388,216.92151 127.91766,216.73473 C 128.88145,216.54793 123.63415,213.50426 116.25703,209.971 C 105.14436,204.6486 101.66584,203.45136 95.97396,202.98995 C 84.83635,202.08707 76.57363,206.33531 63.34342,219.76678 C 56.52433,226.68961 50.70796,231.12553 44.55193,234.09835 C 40.29736,236.15293 39.71419,236.82184 39.70919,239.65296 C 39.6996,245.08429 37.81857,250.23492 35.63619,250.80562 C 33.67992,251.3172 33.61963,252.5009 33.36119,295.47208 L 33.09572,339.61303 L 96.22912,403.00407 L 159.36253,466.39511 L 249.49448,466.39511 L 339.62644,466.39511 L 368.63544,437.37271 z
M 466.35597,250.00303 L 466.39511,160.39302 L 403.00713,96.99896 L 339.61914,33.60489 L 249.49081,33.60489 L 159.36247,33.60489 L 96.46946,96.50404 L 33.57645,159.40319 L 33.84525,192.84206 L 34.11405,226.28093 L 42.26069,218.96065 C 51.14347,210.97892 66.08804,199.6192 78.98974,191.04205 C 92.74905,181.89475 92.59646,181.94479 102.65113,183.28281 C 107.46423,183.92332 111.76401,184.67097 112.20619,184.94425 C 115.71334,187.11178 139.94895,190.97734 142.90928,189.84135 C 143.78927,189.50367 145.42103,187.32077 146.53541,184.99047 C 151.17174,175.29536 151.73266,165.11356 147.74791,162.981 C 145.26833,161.65396 144.60285,162.52705 144.60285,167.10721 C 144.60285,169.94286 144.1124,171.09784 142.72073,171.53954 C 141.68556,171.8681 140.32064,173.27372 139.68758,174.66316 C 138.44829,177.3831 135.88892,177.87559 133.34252,175.88411 C 130.90198,173.97544 127.29124,165.72765 127.29124,162.06155 C 127.29124,158.47532 130.43501,151.47065 133.59384,148.01867 L 135.59328,145.83367 L 130.16935,145.09501 C 121.27447,143.88367 120.84281,140.53952 128.74992,134.09843 C 134.2509,129.61737 134.26802,129.58577 131.80491,128.4635 C 130.15729,127.7128 129.3279,126.49529 129.3279,124.82735 C 129.3279,121.37137 127.91088,120.80853 124.13103,122.76318 C 121.47505,124.13663 120.75902,124.18851 120.04339,123.05937 C 118.48281,120.59702 119.09353,118.55572 122.30013,115.51638 C 124.03567,113.87137 126.51466,110.34878 127.809,107.68839 L 130.16235,102.85132 L 127.17747,102.85132 C 124.96746,102.85132 123.88594,102.1783 123.01135,100.2588 C 121.97229,97.97831 122.15555,97.34085 124.53386,94.96254 C 126.80817,92.68823 128.33358,92.19347 134.13815,91.84746 C 137.93345,91.62122 141.40939,91.09056 141.86246,90.66822 C 142.31554,90.24588 141.52801,87.82575 140.1124,85.29016 L 137.53858,80.68 L 142.34363,78.56058 C 144.98641,77.39491 146.57587,76.42623 145.87576,76.40796 C 145.08157,76.38724 144.60285,74.8869 144.60285,72.41854 C 144.60285,69.32231 145.15624,68.09976 147.14868,66.79426 C 148.54888,65.8768 149.6945,64.44936 149.6945,63.62215 C 149.6945,61.14674 151.64328,61.9226 152.33354,64.67282 C 152.70791,66.16441 153.93037,67.46736 155.27119,67.80388 C 158.43082,68.5969 165.72707,66.54044 170.29385,63.56971 C 172.38215,62.21126 174.73199,61.0998 175.51572,61.0998 C 176.29945,61.0998 178.68093,60.37268 180.80789,59.48397 C 183.24714,58.4648 186.20719,58.06701 188.82431,58.40669 C 204.31403,60.41713 204.44761,60.41549 207.28982,58.17981 C 210.19024,55.89833 212.10175,56.10646 211.14506,58.59955 C 210.22014,61.00985 212.78634,63.13646 216.61979,63.13646 L 220.15924,63.13646 L 219.4792,68.99578 C 218.85269,74.39379 219.03272,75.17755 221.76584,78.95051 C 224.75289,83.07401 232.17923,102.31449 232.17923,105.92997 C 232.17923,108.71936 236.97667,119.82203 241.09208,126.55689 C 243.11971,129.87511 243.30069,130.92685 242.40633,134.19437 C 240.51973,141.08702 237.84742,144.24768 232.36742,146.06784 C 225.49966,148.34894 222.5435,147.45536 220.56029,142.4988 C 219.68949,140.32247 218.86736,137.10273 218.73334,135.34382 C 218.59932,133.58491 217.90382,131.921 217.1878,131.64623 C 216.47178,131.37147 215.88595,130.52174 215.88595,129.75795 C 215.88595,127.71146 205.18697,122.92114 202.51224,123.77007 C 200.4519,124.42399 200.36149,124.91515 200.93419,132.34177 C 202.44834,151.97696 208.28725,160.05073 230.64736,173.42776 C 231.76512,174.09647 233.82724,175.37959 235.22985,176.27916 C 237.70722,177.86803 256.06371,187.1308 262.21996,189.89849 C 273.26002,194.86183 287.13719,196.52621 300.9165,194.53962 C 317.10786,192.20529 323.77358,192.17989 337.06721,194.40186 C 361.0599,198.41213 362.93449,197.73796 383.15088,177.82848 C 396.75117,164.43464 397.36711,163.97231 404.40122,161.87746 C 409.76677,160.27953 413.39666,159.84173 418.39902,160.18918 C 427.80213,160.84229 430.17975,161.59371 439.00918,166.70273 L 446.75562,171.1851 L 452.58736,183.72228 C 458.32837,196.06438 458.41211,196.37649 457.96941,203.78146 C 457.72208,207.91856 457.00445,213.20451 456.37468,215.528 C 454.78895,221.37856 448.68392,231.52293 442.37023,238.79837 C 438.0543,243.77174 435.72415,245.46495 429.84432,247.90043 C 425.87132,249.54607 421.4927,252.06989 420.11403,253.50891 L 417.60736,256.12531 L 419.62019,259.30437 C 422.12511,263.26061 425.17654,263.93138 435.43536,262.78091 C 448.04828,261.36643 456.79918,263.51865 461.30346,269.14298 C 463.44811,271.82092 463.84929,273.3946 463.84929,279.12937 C 463.84929,287.2981 461.92775,290.22403 456.56315,290.22403 C 452.88249,290.22403 452.5571,289.59945 454.2743,285.83061 C 455.14839,283.91219 455.03346,282.68514 453.74661,280.19664 C 450.93254,274.75482 443.30591,274.33548 441.65076,279.53157 C 439.56239,286.0877 432.871,289.64315 431.92758,284.69793 C 431.45206,282.20542 427.93796,279.27158 424.64358,278.6167 C 423.24338,278.33835 418.36422,277.81399 413.801,277.45144 C 405.95487,276.82807 405.28461,276.58123 401.46079,272.90696 C 396.25303,267.90288 393.76688,264.22573 392.16599,259.15945 C 390.8094,254.86635 390.67506,255.51151 395.73613,242.01434 C 397.33591,237.74796 402.57192,230.52707 405.80448,228.12926 C 414.40635,221.74867 421.12159,213.11728 420.06756,209.7963 C 419.73613,208.75209 417.65022,206.25822 415.4322,204.25437 C 412.1509,201.28991 410.59986,200.611 407.1085,200.611 C 402.96295,200.611 394.93977,202.9856 392.30029,204.99376 C 390.3719,206.4609 384.75332,209.64321 381.87373,210.89927 C 380.47352,211.51003 376.94916,213.09275 374.04182,214.41644 L 368.75574,216.82315 L 371.35798,226.28326 C 373.47065,233.96359 373.75276,236.29831 372.85745,238.69301 C 372.25094,240.31532 371.968,241.9878 372.22872,242.40965 C 372.48944,242.83151 373.16446,247.62921 373.72877,253.0712 C 374.30624,258.64014 375.64937,264.98812 376.8011,267.59179 C 380.33929,275.59045 394.47093,293.53894 400.10467,297.18948 C 402.89649,298.99851 405.44731,301.31866 405.77317,302.34535 C 406.09903,303.37203 407.27044,305.03088 408.3763,306.03167 C 410.23965,307.71798 410.38826,309.23866 410.40464,326.78716 C 410.41635,339.32147 410.91808,348.06259 411.88874,352.6435 C 412.69526,356.44977 413.66437,364.0537 414.04231,369.54112 L 414.72948,379.51826 L 409.52632,385.26375 C 406.66459,388.42378 404.05491,392.27606 403.72702,393.82438 C 403.39913,395.3727 402.93128,397.63265 402.68734,398.84648 C 402.44341,400.06031 402.81586,401.29005 403.51499,401.57924 C 404.24096,401.87952 417.98123,388.7038 435.55149,370.85903 L 466.31682,339.61303 L 466.35597,250.00303 z "/>
</svg>