<?xml version="1.0" encoding="UTF-8"?>
<!-- Inkscape -->
<svg xmlns="http://www.w3.org/2000/svg" width="500" height="500">
<path
d="M 72.43032,426.80336 L 0,353.60672 L 0,249.87117 L 0,146.13561 L 73.06253,73.067802 L 146.12504,1.1368684e-013 L 249.35846,1.1368684e-013 L 352.59188,1.1368684e-013 L 426.29594,72.937662 L 500,145.87532 L 500,249.87514 L 500,353.87496 L 426.93219,426.93747 L 353.86439,500 L 249.36251,500 L 144.86062,500 L 72.43032,426.80336 z
M 413.82407,413.05743 L 480.65173,345.46313 L 480.65173,249.99809 L 480.65173,154.53303 L 413.31682,86.431492 L 345.98191,18.329939 L 250.13228,18.329939 L 154.28265,18.329939 L 86.30629,86.300612 L 18.32994,154.27128 L 18.32994,249.9943 L 18.32994,345.71731 L 85.79143,413.18452 L 153.25291,480.65173 L 250.12466,480.65173 L 346.99642,480.65173 L 413.82407,413.05743 z
M 91.90131,408.09279 L 26.47658,342.66215 L 26.47658,249.86755 L 26.47658,157.07294 L 92.54149,91.774762 L 158.60641,26.47658 L 250,26.47658 L 341.39359,26.47658 L 407.45851,91.774762 L 473.52342,157.07294 L 473.52342,249.86755 L 473.52342,342.66215 L 408.09869,408.09279 L 342.67394,473.52342 L 250,473.52342 L 157.32606,473.52342 L 91.90131,408.09279 z
M 403.00104,403.00713 L 466.39511,339.61914 L 466.39511,250.00609 L 466.39511,160.39302 L 403.00713,96.998952 L 339.61914,33.604892 L 249.49081,33.604892 L 159.36247,33.604892 L 96.49188,96.486762 L 33.62129,159.36864 L 33.59136,249.97522 L 33.56145,340.5818 L 96.46196,403.48846 L 159.36247,466.39511 L 249.48473,466.39511 L 339.60698,466.39511 L 403.00104,403.00713 z
M 230.65173,447.35511 C 229.53157,447.12274 227.42627,446.47403 225.9733,445.91355 C 223.39666,444.91963 223.36332,444.78924 224.62105,440.62444 C 228.90629,426.43448 234.4855,394.36914 234.04605,386.45621 L 233.70672,380.34623 L 228.8129,387.74058 C 221.6008,398.63777 221.17802,400.13124 220.36544,417.58136 C 219.65105,432.92288 219.57231,433.33384 216.82039,436.08577 C 214.33039,438.57577 213.25126,438.9002 207.45907,438.9002 C 202.32614,438.9002 200.16641,438.39762 197.45907,436.57315 C 195.55986,435.29327 193.86922,433.53606 193.70209,432.66825 C 193.53496,431.80043 196.12913,425.40107 199.46691,418.44744 C 209.05548,398.47152 209.96151,396.03802 210.53253,388.72632 C 210.97039,383.11961 210.80732,381.93078 209.65973,382.36307 C 208.72414,382.71548 206.95278,380.5774 204.40429,376.01963 C 198.33117,365.15835 189.83734,351.44794 187.75891,349.15129 C 186.71302,347.9956 182.79079,345.2591 179.04285,343.07018 C 174.94925,340.67939 170.06771,336.61141 166.81685,332.88176 C 163.8405,329.46705 160.14511,325.27789 158.60489,323.57253 C 157.06466,321.86716 155.80448,319.42125 155.80448,318.13717 C 155.80448,314.63355 154.35052,314.42089 152.44548,317.64586 C 150.42447,321.06716 141.16113,325.86558 136.57733,325.86558 C 134.68778,325.86558 133.10135,326.48045 132.77122,327.34075 C 132.45988,328.1521 129.83934,329.59109 126.94779,330.5385 C 124.05624,331.48593 118.48269,333.78405 114.56212,335.64545 C 101.30998,341.93727 87.95892,343.88563 80.93532,340.55271 C 77.38817,338.86948 76.67879,337.79465 75.29635,332.00871 C 74.69955,329.51091 74.90496,327.4251 75.99833,324.8804 C 78.60767,318.80748 80.06832,315.45832 83.37612,307.96358 C 85.12618,303.99835 86.55804,300.08033 86.55804,299.25686 C 86.55804,298.43341 87.02847,297.28925 87.60343,296.71428 C 89.60325,294.71447 89.97864,285.73823 88.20582,282.31 C 87.29954,280.55744 86.55804,277.92504 86.55804,276.4602 C 86.55804,272.3797 84.76605,269.85743 81.867,269.85743 C 79.46362,269.85743 79.4013,269.74039 80.96978,268.17191 C 83.55311,265.58858 84.75586,261.69283 83.45428,260.12453 C 82.64916,259.15443 82.66947,258.17671 83.52804,256.57245 C 84.47226,254.80817 84.353,253.41707 82.94045,249.71834 C 81.157,245.04845 76.07096,236.81435 74.29004,235.71369 C 72.48683,234.59925 62.90121,217.4646 61.50151,212.85371 C 58.65215,203.46741 60.65236,192.06113 67.48777,178.7169 C 70.24143,173.34117 82.32621,160.06211 86.44656,157.88452 C 88.63659,156.72711 88.40112,157.49988 84.10038,165.58444 C 74.46493,183.69719 72.23053,191.98646 74.2985,201.94782 C 76.4124,212.13042 83.48703,221.84928 93.85145,228.80893 L 97.58069,231.3131 L 104.71459,228.18201 C 109.23448,226.19822 113.53721,225.05092 116.45714,225.05092 C 119.97709,225.05092 121.41782,224.5483 122.55605,222.92325 C 124.04034,220.80414 124.06816,220.81029 129.47393,224.45074 C 132.45911,226.46108 136.09958,228.10591 137.56386,228.10591 C 142.70938,228.10591 156.24705,219.24962 170.03213,206.86532 L 175.60396,201.85966 L 173.38132,192.8341 C 172.15888,187.87005 170.69787,181.17202 170.13464,177.94957 C 169.57142,174.72714 168.62096,171.17571 168.02253,170.05752 C 167.4038,168.90142 167.34367,168.02444 167.88312,168.02444 C 169.72495,168.02444 175.04132,175.13675 179.25827,183.24225 C 183.26494,190.94358 186.33227,193.71262 186.37176,189.66395 C 186.3834,188.4697 188.31485,187.06264 192.22716,185.39826 C 195.43807,184.03227 203.1613,179.56002 209.38992,175.45993 C 227.55575,163.50192 238.23932,160.8346 257.39409,163.47488 C 263.40881,164.30394 271.30855,165.67289 274.94908,166.51699 C 295.73111,171.33551 302.94888,172.32077 313.64562,171.79926 C 319.98098,171.49039 328.90268,170.17833 335.53971,168.57945 C 354.57646,163.99345 363.53595,162.69678 368.16359,163.85793 C 378.44061,166.4366 390.71134,173.68094 399.26013,182.21657 C 408.44726,191.38954 414.3754,201.03728 419.32286,214.86762 C 425.27235,231.49907 426.17591,237.63995 426.14033,261.20163 C 426.11147,280.31172 425.97011,281.8186 423.84908,285.62647 C 419.09333,294.16443 421.5643,302.07963 432.27819,312.62729 C 437.68487,317.95008 437.93491,318.42082 437.31515,322.11046 C 436.83068,324.9947 437.10054,326.47625 438.36482,327.87326 C 439.93367,329.60682 439.93943,329.99964 438.43859,332.90193 C 437.00834,335.66774 434.76586,344.40531 434.56003,348.01426 C 434.43164,350.26568 432.79022,349.36845 432.79022,347.04684 C 432.79022,345.41748 432.48474,345.11201 431.67004,345.9267 C 430.85535,346.7414 430.9942,348.5754 432.17921,352.65166 C 434.2514,359.77974 434.24856,359.80273 431.51731,358.03176 C 429.52438,356.73953 428.96879,356.73643 427.24998,358.00784 C 426.16313,358.81179 424.46024,361.1882 423.46579,363.28876 L 421.6577,367.10794 L 421.52164,363.03462 C 421.44681,360.7943 421.06169,357.81568 420.66584,356.41548 L 419.94609,353.86965 L 419.23988,356.41548 C 418.70588,358.34049 418.31615,358.62404 417.64173,357.57828 C 416.98579,356.56118 416.13492,357.42645 414.42586,360.84853 C 412.22885,365.2476 410.38697,366.21713 410.38697,362.97452 C 410.38697,361.18185 408.36285,360.99146 408.31934,362.78004 C 408.23152,366.39008 406.47027,360.14842 405.82681,353.94678 C 404.78089,343.86624 404.56123,343.54772 400.99011,346.93294 L 397.96947,349.79633 L 398.67449,339.61303 C 399.06225,334.01222 399.78287,327.59674 400.27587,325.35642 C 400.76885,323.11609 401.15112,319.4501 401.12535,317.20978 L 401.07849,313.13646 L 399.67591,316.95562 C 397.88541,321.83107 393.40016,341.20924 391.55807,352.02813 C 390.77688,356.61611 389.68324,362.11509 389.12773,364.24809 C 388.57223,366.38109 387.58584,371.56314 386.93575,375.76375 C 386.28567,379.96436 385.09129,386.37984 384.28157,390.02037 C 383.47185,393.6609 382.39571,398.70163 381.89016,401.222 C 381.3846,403.74236 380.60127,407.61905 380.14943,409.83687 C 379.19523,414.52046 377.66459,415.21961 368.02039,415.37711 C 362.71899,415.46369 361.39968,415.10342 359.05269,412.92829 C 357.4005,411.3971 356.59918,409.8711 357.04741,409.10955 C 357.45803,408.41192 359.91875,404.6334 362.51567,400.71283 C 368.74597,391.30698 373.77603,378.83147 374.42265,371.18126 C 374.79448,366.78208 374.32337,362.79021 372.74014,356.92464 C 370.19552,347.49733 369.22395,346.0564 367.2408,348.76852 C 365.8852,350.62241 365.81501,350.61213 365.1317,348.45921 C 364.162,345.40393 363.00626,345.66793 361.50713,349.28717 C 359.72958,353.57855 358.85107,353.08625 359.23559,348.01426 C 359.55095,343.85455 359.49775,343.76551 357.86675,345.72301 C 354.35368,349.93938 343.20829,375.37036 336.56868,394.31988 C 335.42136,397.5943 333.24752,400.59969 329.75539,403.73943 C 325.0696,407.95234 324.17264,408.35031 319.36288,408.35031 C 314.2458,408.35031 309.5723,406.35248 309.5723,404.16505 C 309.5723,403.60692 311.56912,400.08148 314.00968,396.33073 C 316.45024,392.57999 319.25631,387.90733 320.2454,385.94705 C 321.23448,383.98676 323.64435,380.13093 325.60065,377.37851 C 330.27025,370.80868 338.11448,355.79711 339.14715,351.45444 C 340.15101,347.23297 338.17344,338.08554 336.25696,338.08554 C 335.51632,338.08554 335.17067,338.50675 335.48885,339.02157 C 336.5669,340.7659 329.49988,347.01602 325.11423,348.19696 C 322.76808,348.82871 320.14435,350.35091 319.28372,351.57962 C 317.72009,353.81203 317.71894,353.81153 317.71894,350.90392 L 317.71894,347.99418 L 315.68228,350.58337 C 314.56212,352.00742 313.6386,353.78766 313.63003,354.53944 C 313.62146,355.29122 313.23906,356.49798 312.78027,357.22114 C 312.26078,358.03998 311.8828,356.91986 311.77825,354.25172 C 311.59681,349.62132 310.59063,347.2973 310.59063,351.50862 C 310.59063,353.50771 309.70449,354.46909 306.55125,355.89101 C 302.67981,357.63679 302.39708,357.6373 299.75089,355.90345 C 296.99143,354.09539 296.98801,354.09644 293.59326,357.80075 C 291.72511,359.83926 290.00554,361.50713 289.77199,361.50713 C 289.53844,361.50713 289.19989,360.47607 289.01965,359.21589 C 288.75214,357.34541 287.80411,358.28626 283.85718,364.33929 C 281.19805,368.41734 279.0224,372.11933 279.0224,372.56593 C 279.0224,373.01252 277.70185,375.40403 276.08784,377.88041 C 274.47384,380.35677 272.55936,384.0721 271.83344,386.13668 C 270.92022,388.73397 269.72519,390.08835 267.9546,390.53274 C 264.41331,391.42155 261.84638,394.68998 260.50458,400.01877 L 259.36763,404.53404 L 257.62482,402.22354 L 255.882,399.91303 L 255.08152,403.87709 C 254.33384,407.57964 254.2305,407.6732 253.51494,405.29532 L 252.74884,402.74949 L 252.64733,405.19371 C 252.54193,407.73164 250.48501,419.00723 247.9067,431.18072 C 245.44183,442.81862 238.79915,449.04531 230.65173,447.35511 z
M 132.89206,283.09572 C 133.24753,282.52056 132.4135,282.07739 130.97559,282.07739 C 129.57539,282.07739 128.14656,282.53564 127.80041,283.09572 C 127.44494,283.67089 128.27896,284.11405 129.71687,284.11405 C 131.11708,284.11405 132.54591,283.6558 132.89206,283.09572 z
M 132.38289,273.23454 C 133.53011,272.83941 133.32959,272.48463 131.57746,271.8095 C 130.04225,271.21793 128.5624,271.33657 127.24956,272.15645 C 123.12485,274.73238 126.1745,275.37286 132.38289,273.23454 z
M 169.60135,248.44892 C 176.72873,245.04734 177.98384,243.81343 181.78196,236.47408 C 187.0327,226.32772 186.24043,201.0171 180.31842,189.71891 C 179.2017,187.58838 177.55573,184.30637 176.66072,182.42557 C 175.76572,180.54478 174.8162,179.22318 174.55068,179.4887 C 174.28516,179.75421 175.22851,185.33938 176.647,191.90018 C 180.18453,208.26202 180.24975,223.33829 176.81463,230.65173 C 173.57933,237.53976 172.06684,238.66943 160.44975,242.87465 C 154.93285,244.87168 148.07933,247.52098 145.21969,248.76198 L 140.02037,251.01833 L 144.09369,251.69576 C 151.99508,253.00986 162.97258,251.61255 169.60135,248.44892 z
M 85.57605,227.92989 C 81.40571,223.65913 77.18697,217.94336 74.54409,212.98324 C 70.55768,205.50154 70.26477,204.40198 70.26477,196.91928 C 70.26477,192.5014 70.71517,187.31626 71.26568,185.39677 C 72.95966,179.49021 71.47883,180.61579 68.12409,187.78469 C 64.84011,194.8024 63.09625,205.74719 64.67119,209.45571 C 65.10278,210.47198 65.54432,212.09871 65.65239,213.07068 C 65.76047,214.04265 66.61334,215.6826 67.54767,216.71502 C 68.48199,217.74743 69.25478,219.01431 69.26497,219.53029 C 69.2864,220.61496 73.27198,226.76371 80.17455,236.361 L 85.01319,243.08859 L 88.67093,238.96684 L 92.32866,234.84509 L 85.57605,227.92989 z "/>
</svg>