<?xml version="1.0" encoding="UTF-8" standalone="no"?>
<!-- Created with Inkscape (http://www.inkscape.org/) -->
<svg
   xmlns:dc="http://purl.org/dc/elements/1.1/"
   xmlns:cc="http://web.resource.org/cc/"
   xmlns:rdf="http://www.w3.org/1999/02/22-rdf-syntax-ns#"
   xmlns:svg="http://www.w3.org/2000/svg"
   xmlns="http://www.w3.org/2000/svg"
   xmlns:sodipodi="http://inkscape.sourceforge.net/DTD/sodipodi-0.dtd"
   xmlns:inkscape="http://www.inkscape.org/namespaces/inkscape"
   id="svg2"
   sodipodi:version="0.32"
   inkscape:version="0.43"
   width="500"
   height="500"
   sodipodi:docbase="C:\Documents and Settings\clint\My Documents\Working\Chinese Zodiac"
   sodipodi:docname="rabbit.svg"
   version="1.0">
  <metadata
     id="metadata7">
    <rdf:RDF>
      <cc:Work
         rdf:about="">
        <dc:format>image/svg+xml</dc:format>
        <dc:type
           rdf:resource="http://purl.org/dc/dcmitype/StillImage" />
      </cc:Work>
    </rdf:RDF>
  </metadata>
  <defs
     id="defs5" />
  <sodipodi:namedview
     inkscape:window-height="540"
     inkscape:window-width="749"
     inkscape:pageshadow="2"
     inkscape:pageopacity="0.0"
     borderopacity="1.0"
     bordercolor="#666666"
     pagecolor="#ffffff"
     id="base"
     inkscape:showpageshadow="false"
     inkscape:zoom="0.50259871"
     inkscape:cx="372.04724"
     inkscape:cy="207.83566"
     inkscape:window-x="132"
     inkscape:window-y="132"
     inkscape:current-layer="svg2" />
  <path
     style="fill:#000000"
     d="M 72.430315,426.80334 L 0,353.60671 L 0,249.87116 L 0,146.1356 L 73.062525,73.067802 L 146.12506,1.1368684e-013 L 249.35846,1.1368684e-013 L 352.59188,1.1368684e-013 L 426.29593,72.937652 L 499.99999,145.87531 L 499.99999,249.87513 L 499.99999,353.87494 L 426.93219,426.93746 L 353.8644,499.99998 L 249.36251,499.99998 L 144.86064,499.99998 L 72.430315,426.80334 z M 413.82407,413.05742 L 480.65173,345.46311 L 480.65173,328.53603 L 480.65173,311.60895 L 477.08757,311.60895 L 473.52343,311.60895 L 473.52343,327.13555 L 473.52343,342.66213 L 408.09868,408.09277 L 342.67395,473.5234 L 250.00635,473.5234 L 157.33874,473.5234 L 100.63,416.82144 L 43.921241,360.11946 L 39.626985,362.05591 L 35.332738,363.99235 L 94.295705,422.28135 L 153.25867,480.57035 L 250.12755,480.61103 L 346.99642,480.65171 L 413.82407,413.05742 z M 403.00104,403.00711 L 466.39511,339.61913 L 466.39511,324.59571 L 466.39511,309.57229 L 462.18463,309.57229 C 458.02348,309.57229 449.63234,308.4077 439.06023,306.36291 C 436.06779,305.78413 426.44457,304.72564 417.6753,304.01071 C 401.86253,302.72154 395.30498,301.12709 390.39378,297.37733 C 388.16801,295.67793 372.06709,276.03821 370.07344,272.59082 C 369.04541,270.81315 368.8784,270.88411 367.75475,273.57587 C 365.07811,279.98797 349.33339,294.22002 340.12221,298.55361 C 328.77788,303.8908 324.64808,305.48486 318.22812,307.00447 C 314.30755,307.93247 309.03769,309.19567 306.51732,309.81158 C 303.99696,310.4275 291.166,311.12751 278.00408,311.36716 L 254.07333,311.80289 L 241.85337,308.24752 C 235.13239,306.29206 225.5781,302.81156 220.62162,300.51307 C 215.66515,298.21458 211.3118,296.34757 210.9475,296.36416 C 210.58319,296.38075 207.56311,298.93284 204.2362,302.03547 C 200.90928,305.1381 196.32681,308.75259 194.0529,310.06767 C 189.42056,312.74673 176.77329,317.10156 170.57028,318.15345 C 166.42664,318.85612 164.10854,319.82958 146.18815,328.39248 C 136.94445,332.8094 134.9491,333.35726 123.27574,334.68345 C 94.649135,337.93568 85.088865,340.23528 69.755615,347.55707 C 68.075365,348.3594 62.928625,350.79533 58.318425,352.97024 L 49.936225,356.92463 L 104.6489,411.65986 L 159.36157,466.39509 L 249.48427,466.39509 L 339.60699,466.39509 L 403.00104,403.00711 z M 27.908747,349.92676 L 31.468023,347.51137 L 28.972301,345.16677 C 27.599653,343.87723 26.476588,342.04282 26.476588,341.0903 C 26.476588,339.57302 22.884735,338.08552 19.220977,338.08552 C 17.187535,338.08552 18.401802,345.44394 20.996629,348.84593 C 22.463309,350.76884 23.817708,352.34214 24.006405,352.34214 C 24.195091,352.34214 25.95115,351.25522 27.908747,349.92676 z M 47.687825,342.54063 C 51.423895,341.07036 54.916005,339.46649 55.448075,338.97647 C 55.980155,338.48645 56.945455,338.08552 57.593195,338.08552 C 58.240925,338.08552 62.846325,335.7192 67.827405,332.82703 C 72.808485,329.93485 79.404285,326.21469 82.484735,324.55999 C 92.472465,319.19495 93.190425,317.63405 84.220275,320.78681 C 81.053395,321.89988 77.648915,322.80831 76.654775,322.80554 C 75.660645,322.80277 72.785145,323.44733 70.264775,324.23789 C 67.744415,325.02845 63.161925,326.38414 60.081475,327.25054 C 57.001035,328.11692 51.502055,329.79116 47.861515,330.97104 C 44.220986,332.15094 39.872259,333.45028 38.197687,333.85848 C 36.470223,334.27956 34.615366,335.67906 33.910264,337.09336 C 32.811455,339.29734 32.979765,339.91199 35.36338,342.39995 C 38.677952,345.85961 39.237799,345.866 47.687825,342.54063 z M 26.228034,238.50303 L 26.488645,157.06101 L 92.547525,91.768792 L 158.60642,26.476578 L 250,26.476578 L 341.3936,26.476578 L 407.47474,91.790792 L 473.55587,157.105 L 473.28506,215.51806 L 473.01425,273.93112 L 475.22221,273.93092 C 476.43658,273.93082 478.15502,274.20889 479.04095,274.54886 C 480.49859,275.1082 480.65173,269.43282 480.65173,214.85 L 480.65173,154.53303 L 413.31682,86.431482 L 345.98192,18.329939 L 250.13228,18.329939 L 154.28266,18.329939 L 86.306295,86.300602 L 18.329938,154.27127 L 18.329938,238.42092 L 18.329938,322.57058 L 22.148686,321.25782 L 25.967423,319.94507 L 26.228034,238.50303 z M 55.815165,313.52479 C 60.681995,311.17487 66.837285,308.17861 69.493565,306.86643 C 72.149855,305.55424 75.456135,304.48064 76.840865,304.48064 C 78.225605,304.48064 81.322145,303.85933 83.722055,303.09997 C 86.121975,302.34059 89.918545,301.22931 92.158875,300.63046 C 111.94221,295.34228 121.42173,291.53949 131.63427,284.79457 L 134.45853,282.92928 L 130.62031,280.36294 C 128.50929,278.95145 125.47816,276.58309 123.88448,275.09992 C 119.94587,271.43443 114.19644,259.78646 113.94278,254.95863 C 113.68646,250.08038 114.96622,242.26908 116.29079,240.62702 C 116.83485,239.95255 118.10839,237.77587 119.12086,235.78996 L 120.96173,232.17921 L 113.10627,232.17921 C 100.49647,232.17921 98.074795,230.88187 82.629045,215.85192 C 69.152795,202.73844 69.032345,202.58071 69.715005,198.94179 C 70.094005,196.92154 70.781695,194.52309 71.243195,193.61189 C 71.704695,192.7007 72.597155,190.80956 73.226435,189.40936 C 73.855715,188.00915 75.706755,184.80142 77.339865,182.28105 C 78.972965,179.76068 81.669545,175.40732 83.332265,172.60691 C 84.994985,169.80651 88.233975,165.70383 90.530035,163.48986 C 92.826105,161.27589 94.704695,159.10865 94.704695,158.67377 C 94.704695,157.57906 102.76836,150.24898 107.51952,147.02476 C 111.2444,144.497 111.83112,144.40481 119.11253,145.20316 C 123.33078,145.66566 128.64421,146.05389 130.92012,146.06589 C 136.62597,146.09597 146.27319,141.14542 158.5052,131.91039 C 164.02083,127.74615 174.9491,119.54235 182.79024,113.67974 C 190.63137,107.81711 198.9299,101.60362 201.23143,99.871972 C 205.60888,96.578412 212.12676,92.739032 217.56039,90.253332 C 219.32146,89.447712 223.67482,87.411152 227.23453,85.727652 C 239.62054,79.869902 245.13754,78.010392 262.21997,73.935762 C 277.58932,70.269742 298.85087,69.074252 307.94682,71.364642 C 314.32543,72.970802 317.71895,76.509982 317.71895,81.556222 C 317.71895,86.395472 315.34805,88.980142 306.1588,94.158722 L 300.12442,97.559382 L 316.87874,97.005962 C 335.77799,96.381682 347.41244,98.073582 350.92719,101.95733 C 353.19311,104.46112 353.35591,110.30079 351.27653,114.48726 C 349.50029,118.06342 327.54938,135.92084 322.74503,137.69808 C 321.54348,138.14256 319.34828,139.34496 317.86676,140.37008 C 312.17638,144.30755 277.43613,156.99027 264.76579,159.75581 C 250.0893,162.95923 232.79168,165.62635 214.86762,167.44961 C 207.30653,168.21875 196.76682,169.34828 191.44603,169.95969 C 186.12526,170.5711 176.84573,171.5991 170.82485,172.24413 C 164.80398,172.88915 159.87782,173.81996 159.87782,174.31258 C 159.87782,175.99296 171.57731,188.03428 175.66193,190.55784 C 182.257,194.63242 190.32613,196.03602 206.72098,195.96043 C 220.21386,195.89822 222.45186,195.61119 232.68169,192.63084 C 238.83891,190.83702 246.79514,188.00359 250.36221,186.33436 C 253.92929,184.66512 257.68583,183.29938 258.71004,183.29938 C 259.73427,183.29938 260.8189,182.90033 261.12034,182.41259 C 261.57853,181.67121 288.17757,170.1734 300.40733,165.4302 C 305.35242,163.5123 322.34672,159.13859 328.00797,158.32679 C 333.45153,157.54621 349.69513,159.3137 355.1877,161.28424 C 357.2632,162.02885 361.7108,163.47013 365.07128,164.48709 C 368.43178,165.50404 375.56646,168.54897 380.92613,171.25358 C 386.2858,173.9582 391.15587,176.17107 391.74849,176.17107 C 392.34112,176.17107 393.42424,176.89193 394.15546,177.77299 C 394.88667,178.65405 397.11946,180.22657 399.11721,181.26748 C 405.18721,184.4302 416.1157,195.16017 422.06847,203.80178 C 425.16503,208.29706 427.69858,212.39616 427.69858,212.91092 C 427.69858,213.42566 429.2679,216.94055 431.18595,220.72178 C 433.10402,224.503 436.76196,232.74527 439.31471,239.03794 C 443.66751,249.7678 448.54879,258.12109 453.16154,262.73384 C 454.25712,263.82942 457.68287,266.15329 460.77431,267.89798 L 466.39511,271.07017 L 466.39511,215.73159 L 466.39511,160.39301 L 403.00714,96.998952 L 339.61915,33.604884 L 249.49082,33.604884 L 159.36248,33.604884 L 96.492885,96.486752 L 33.623288,159.36863 L 33.35951,239.90457 L 33.095732,320.4405 L 40.031048,319.11894 C 43.845467,318.39206 50.948325,315.8747 55.815165,313.52479 z M 97.243315,316.71226 C 97.600075,316.13501 97.191315,315.96429 96.285075,316.31204 C 94.520905,316.98902 94.198125,317.71893 95.662925,317.71893 C 96.189955,317.71893 96.901125,317.26592 97.243315,316.71226 z M 130.94033,173.66764 L 134.92872,170.14587 L 131.19329,170.10348 C 129.13877,170.08016 126.73297,169.78294 125.84705,169.44297 C 124.60588,168.96669 124.23627,169.50412 124.23627,171.78513 C 124.23627,173.41329 123.68637,175.29531 123.01426,175.9674 C 122.06383,176.91784 122.36558,177.1894 124.3721,177.1894 C 125.86684,177.1894 128.62947,175.70812 130.94033,173.66764 z M 115.28383,172.77181 C 115.01904,170.50375 115.4663,168.79324 116.62786,167.63167 C 117.58534,166.67419 118.09102,165.61307 117.7516,165.27364 C 117.41215,164.9342 115.49556,166.3942 113.49247,168.51808 L 109.85053,172.37967 L 112.7155,174.26866 C 114.29123,175.30761 115.60301,176.16067 115.63056,176.16436 C 115.65812,176.16804 115.50207,174.64141 115.28383,172.77181 z M 120.6721,172.09775 C 120.32595,171.53767 119.84067,171.07942 119.59367,171.07942 C 119.34669,171.07942 119.14461,171.53767 119.14461,172.09775 C 119.14461,172.65783 119.62991,173.11608 120.22304,173.11608 C 120.81618,173.11608 121.01826,172.65783 120.6721,172.09775 z M 179.73524,159.48792 C 189.81671,158.55521 201.04379,157.35825 204.68433,156.82803 C 208.32486,156.29779 218.86458,155.15282 228.10591,154.28365 C 251.86546,152.049 259.05417,150.91657 268.32995,147.94719 C 285.34886,142.49904 310.86706,130.82156 319.46475,124.54717 C 325.99782,119.77949 334.05077,114.16108 335.90328,113.07827 C 336.74721,112.58499 337.03022,111.4673 336.63027,110.20718 C 336.03564,108.33365 334.78418,108.07386 323.02842,107.38364 C 308.60235,106.53663 282.87838,108.27703 274.43993,110.67098 C 271.63952,111.46545 266.8279,112.70442 263.74746,113.42427 C 257.30122,114.93065 252.85926,116.31365 242.87169,119.92389 C 233.67489,123.24831 158.85949,160.89031 158.85949,162.1931 C 158.85949,162.82756 159.31585,162.82392 160.1324,162.18296 C 160.83249,161.6334 169.65378,160.42064 179.73524,159.48792 z "
     id="path1308" />
</svg>
