<?xml version="1.0" encoding="UTF-8"?>
<!-- Created with Inkscape -->
<svg xmlns="http://www.w3.org/2000/svg" width="500" height="500">
<path
d="M 72.43032,426.80336 L 0,353.60672 V 249.87117 L 0,146.13561 L 73.06253,73.067805 L 146.12504,1.1368684e-013 L 249.35846,1.1368684e-013 L 352.59188,1.1368684e-013 L 426.29593,72.937655 L 500,145.87532 L 500,249.87514 L 500,353.87496 L 426.93219,426.93747 L 353.86439,500 L 249.3625,500 L 144.86062,500 L 72.43032,426.80336 z
M 413.82407,413.05743 L 480.65173,345.46313 L 480.65173,249.99809 L 480.65173,154.53304 L 413.31682,86.431485 L 345.98191,18.329939 L 250.13228,18.329939 L 154.28265,18.329939 L 86.30629,86.300605 L 18.32994,154.27129 L 18.32994,249.9943 L 18.32994,345.71731 L 85.79143,413.18452 L 153.25291,480.65173 L 250.12466,480.65173 L 346.99641,480.65173 L 413.82407,413.05743 z
M 91.90131,408.09279 L 26.47658,342.66215 L 26.47658,249.86755 L 26.47658,157.07295 L 92.54149,91.774755 L 158.6064,26.476576 L 250,26.476576 L 341.39359,26.476576 L 407.45851,91.774755 L 473.52342,157.07295 L 473.52342,249.86755 L 473.52342,342.66215 L 408.09868,408.09279 L 342.67394,473.52342 L 250,473.52342 L 157.32606,473.52342 L 91.90131,408.09279 z
M 403.00104,403.00713 L 466.39511,339.61915 L 466.39511,250.00609 L 466.39511,160.39303 L 403.00713,96.998955 L 339.61914,33.604885 L 249.49081,33.604885 H 159.36247 L 96.49188,96.486755 L 33.62129,159.36864 L 33.59136,249.97523 L 33.56145,340.5818 L 96.46195,403.48846 L 159.36247,466.39511 L 249.48472,466.39511 L 339.60697,466.39511 L 403.00104,403.00713 z
M 352.56611,434.51369 C 352.40975,432.8699 348.30092,371.38137 348.28302,370.41752 C 348.26658,369.53223 353.91308,369.41973 356.98254,370.24418 C 358.92926,370.76706 359.15782,372.00605 360.22044,387.79647 C 360.85879,397.2823 362.38242,409.44077 363.67016,415.32484 L 365.97658,425.86351 L 363.48727,427.77598 C 355.8323,433.65707 352.67018,435.60791 352.56611,434.51369 z
M 369.67996,425.61342 C 369.03007,423.11973 368.08522,419.47556 367.5803,417.51528 C 365.55844,409.66557 363.54379,391.07022 363.54379,380.258 L 363.54379,368.81349 L 356.67006,366.22583 C 352.88951,364.80261 348.42159,363.3168 346.74134,362.92404 C 339.6424,361.26462 315.68857,352.95457 308.70951,349.73005 C 300.0035,345.70763 291.15146,338.94449 288.80339,334.52139 C 287.9114,332.84114 286.77363,330.77902 286.27501,329.9389 C 282.31209,323.26188 280.04073,312.84918 280.04073,301.3587 L 280.04073,291.53634 L 272.65784,290.93411 C 259.09315,289.82761 239.05268,281.54522 221.39709,269.74887 C 213.96667,264.78435 197.17479,251.19202 189.84783,244.21107 C 185.79429,240.34895 185.51638,240.25548 177.11871,239.92945 C 168.75161,239.6046 165.28767,238.58121 152.24032,232.57933 C 150.56008,231.80641 144.83197,229.95937 139.5112,228.4748 C 130.11136,225.85212 129.31103,225.79515 111.28438,226.4656 L 92.73169,227.15562 L 89.63021,221.01162 C 87.9244,217.63243 86.87901,214.86588 87.30714,214.86374 C 87.73525,214.86161 92.20978,214.18224 97.25051,213.35402 C 108.79115,211.45785 116.66076,211.44112 137.02914,213.26942 C 161.86762,215.49896 171.07943,216.05578 171.07943,215.32759 C 171.07943,211.93218 166.43679,188.27189 165.35426,186.15037 C 164.58253,184.63796 163.93328,182.57584 163.91148,181.56788 C 163.82233,177.4469 154.31298,164.38335 142.09481,151.59703 C 137.31333,146.59323 133.40122,142.07197 133.40122,141.5498 C 133.40122,141.02763 132.09212,139.09514 130.49211,137.2554 C 128.8921,135.41564 126.89351,132.57726 126.05081,130.94788 L 124.51863,127.98538 L 119.86173,135.11931 C 117.30043,139.04297 114.5667,143.81296 113.78677,145.71929 C 112.38057,149.15639 112.35836,149.16604 111.12781,146.8744 C 110.02501,144.82066 110.62877,143.16501 116.5524,131.9988 C 120.21844,125.08824 123.21792,118.91075 123.21792,118.27104 C 123.21792,117.63134 122.49216,117.10795 121.60512,117.10795 C 119.54507,117.10795 101.83299,134.87442 101.83299,136.9408 C 101.83299,138.77436 101.34851,138.85024 98.69812,137.43178 C 97.0281,136.53803 96.89995,136.01613 97.88542,134.12221 C 99.98048,130.09585 107.6889,121.61609 113.4319,117.02009 C 116.52089,114.54805 119.06992,111.69505 119.09642,110.6801 C 119.13709,109.12259 118.39013,109.36084 114.30753,112.2076 C 111.64715,114.06267 109.10401,116.15326 108.65612,116.85336 C 108.20823,117.55346 107.25705,118.12628 106.54238,118.12628 C 105.82773,118.12628 104.16675,119.2719 102.85132,120.6721 C 101.5359,122.0723 100.0028,123.21792 99.44443,123.21792 C 98.88606,123.21792 97.62413,123.94651 96.64016,124.83699 C 95.39765,125.96145 94.33703,126.16836 93.16832,125.51432 C 91.74329,124.71684 92.29636,123.84359 96.77914,119.81318 C 102.14143,114.99203 108.25465,110.62201 113.2087,108.06857 C 115.83842,106.71315 115.86812,106.60173 114.10437,104.70858 C 113.10105,103.63164 111.45695,100.92499 110.45083,98.693815 C 107.90121,93.039755 109.04982,92.264855 120.89214,91.649695 C 130.26282,91.162925 130.72861,91.028565 131.48276,88.594705 C 131.91662,87.194495 133.46999,82.039205 134.93469,77.138495 C 137.33729,69.099685 137.84078,68.228105 140.08198,68.228105 C 141.4483,68.228105 142.56144,68.342665 142.55562,68.482685 C 142.54981,68.622705 140.97,73.960155 139.04494,80.343685 C 137.11987,86.727205 135.91156,91.538815 136.35979,91.036145 C 136.80802,90.533475 141.8795,83.935845 147.62972,76.374745 C 158.04775,62.675875 159.54204,61.497795 162.6698,64.517425 C 163.66728,65.480415 161.74226,68.312715 153.55357,77.930205 L 143.17284,90.122195 L 151.7799,82.407705 C 156.51379,78.164735 161.51742,73.927725 162.89909,72.992145 C 165.30342,71.364075 165.46274,71.387315 166.61155,73.533885 C 167.73773,75.638185 167.00021,76.385055 154.67035,85.626505 C 141.82121,95.257165 141.58002,95.509665 143.82959,96.975645 C 145.09501,97.800285 147.96334,99.056395 150.20367,99.766995 C 152.44399,100.4776 155.73304,101.66813 157.51267,102.41262 C 164.00723,105.12955 179.54361,105.3153 195.47017,102.86641 C 213.42976,100.10491 226.91219,100.93419 235.04603,105.30063 C 236.54973,106.10786 241.2169,108.45069 245.41751,110.50692 C 252.46127,113.95489 256.99591,116.67465 262.21996,120.58455 C 264.08699,121.98194 263.57812,122.1134 256.10998,122.16309 C 251.62933,122.1929 245.56111,122.50585 242.62505,122.85852 L 237.28676,123.49973 L 247.70331,130.71583 L 258.11986,137.93192 L 253.55076,138.76315 C 247.74511,139.81935 230.61099,138.77463 222.00573,136.83976 C 218.37059,136.02241 207.66736,132.41838 198.22078,128.83083 C 185.71474,124.08138 181.53294,122.84698 182.83928,124.29046 C 183.82603,125.38081 185.05118,126.27291 185.56182,126.27291 C 186.07246,126.27291 187.949,127.3722 189.73189,128.71577 C 194.63259,132.40888 205.37755,136.93921 213.88392,138.89882 C 218.06548,139.86214 222.40326,140.86305 223.52342,141.12307 C 224.64358,141.38309 229.77833,142.48694 234.93397,143.57605 C 245.48705,145.80536 260.2966,151.24009 268.7742,155.99455 C 297.07218,171.86479 311.38276,181.60585 327.14117,195.72433 C 330.08012,198.35744 338.44195,205.66437 345.72301,211.96197 C 364.65302,228.33505 365.33278,229.00094 369.87404,235.62016 C 378.69361,248.47534 382.3071,263.68135 380.78055,281.51612 C 379.54161,295.99071 377.72952,305.56061 376.37095,304.80378 C 375.70858,304.43479 375.74439,304.71171 376.45898,305.48474 C 377.43726,306.54302 379.25347,306.54285 386.13311,305.48391 C 396.58769,303.8747 401.10835,302.33391 406.95761,298.38629 C 409.45999,296.69746 411.85527,295.31568 412.28046,295.31568 C 413.71329,295.31568 422.84253,283.99373 425.27773,279.19665 C 431.13327,267.66183 433.33442,254.16734 432.52084,234.79161 C 431.98917,222.12984 431.75396,220.96996 427.65437,210.7943 C 425.28508,204.91344 422.37821,198.83814 421.19466,197.29362 C 414.47778,188.52809 411.44975,185.24747 403.44612,178.06442 C 395.08139,170.55731 384.74762,164.42134 370.35602,158.4162 C 362.2268,155.02416 344.36555,153.15781 334.52138,154.6718 C 319.94414,156.91373 313.32949,159.05416 301.08855,165.4903 C 297.24526,167.51106 296.85609,167.46597 288.79824,164.06643 L 281.83039,161.12674 L 286.28179,158.5608 C 296.99821,152.38348 308.94477,147.55358 322.30142,143.99833 C 342.34602,138.6629 365.79242,141.01028 385.43788,150.31934 C 399.33189,156.90307 415.12997,169.11232 425.77983,181.49689 C 439.38356,197.31645 446.02851,216.33385 446.02851,239.44726 C 446.02851,260.41576 442.48884,273.30548 432.77925,287.69447 C 426.25753,297.35924 423.00131,300.71721 414.65499,306.38509 C 402.66731,314.52578 389.53543,318.65889 375.47334,318.7171 C 369.73525,318.74086 366.42932,320.63807 362.37613,326.23333 C 355.07286,336.3152 362.85943,351.07069 378.81874,357.39194 C 380.77902,358.16837 382.47236,358.85222 382.58172,358.91158 C 382.69108,358.97095 381.60939,362.21417 380.17796,366.11873 C 374.081,382.74973 373.52407,392.68569 377.76115,409.23723 L 379.94333,417.76163 L 377.33565,421.45719 C 375.90142,423.48975 373.85803,426.27655 372.79478,427.65008 L 370.86159,430.14742 L 369.67996,425.61342 z
M 235.74338,128.83653 C 231.66986,126.34187 229.54288,125.28179 223.19375,122.58189 C 218.74608,120.69056 206.71557,119.82927 199.21037,120.86486 L 193.22726,121.69043 L 204.30202,125.75156 C 215.95348,130.02417 221.0185,130.99713 232.68839,131.20443 L 239.8167,131.33106 L 235.74338,128.83653 z
M 155.67402,121.07416 C 161.20387,119.14644 162.52566,113.95518 158.60489,109.56335 C 153.33975,103.66566 142.54621,106.88818 142.58178,114.34721 C 142.60202,118.58978 143.6034,120.05081 147.23547,121.13694 C 151.33109,122.36168 151.99478,122.35674 155.67402,121.07416 z
M 146.38493,118.07082 C 144.03415,116.66717 144.11454,112.77386 146.53962,110.5792 C 147.84096,109.4015 149.75595,108.9321 152.37647,109.14846 C 155.59901,109.41453 156.44989,109.96631 157.27432,112.32462 C 158.70117,116.40614 156.99936,118.57925 152.13662,118.88517 C 149.95333,119.02252 147.36507,118.65606 146.38493,118.07082 z
M 205.19348,322.40454 C 191.30154,318.75893 178.85404,310.10264 171.36562,298.87984 C 166.43363,291.48833 164.53013,284.93293 164.56463,275.45825 C 164.59801,266.29143 168.2859,258.75176 177.19417,249.63789 L 183.52026,243.16581 L 188.49915,248.06984 L 193.47805,252.97386 L 190.11407,256.57859 C 184.27209,262.83865 179.22607,269.6342 179.22607,271.24163 C 179.22607,272.09446 178.8077,273.0508 178.29634,273.36682 C 175.26371,275.2411 176.4097,287.6358 180.32572,295.31568 C 187.31336,309.01947 205.62444,316.56981 232.17922,316.6968 C 247.19428,316.76861 247.63825,317.33691 235.43963,320.87025 C 226.63733,323.41985 211.90931,324.16696 205.19348,322.40454 z"/>
</svg>