<?xml version="1.0" encoding="UTF-8" standalone="no"?>
<!-- Created with Inkscape (http://www.inkscape.org/) -->

<svg
   xmlns:dc="http://purl.org/dc/elements/1.1/"
   xmlns:cc="http://creativecommons.org/ns#"
   xmlns:rdf="http://www.w3.org/1999/02/22-rdf-syntax-ns#"
   xmlns:svg="http://www.w3.org/2000/svg"
   xmlns="http://www.w3.org/2000/svg"
   xmlns:sodipodi="http://sodipodi.sourceforge.net/DTD/sodipodi-0.dtd"
   xmlns:inkscape="http://www.inkscape.org/namespaces/inkscape"
   version="1.0"
   width="500"
   height="500"
   id="svg2"
   inkscape:version="0.48.1 "
   sodipodi:docname="Rooster.svg">
  <sodipodi:namedview
     pagecolor="#ffffff"
     bordercolor="#666666"
     borderopacity="1"
     objecttolerance="10"
     gridtolerance="10"
     guidetolerance="10"
     inkscape:pageopacity="0"
     inkscape:pageshadow="2"
     inkscape:window-width="1280"
     inkscape:window-height="738"
     id="namedview8"
     showgrid="false"
     inkscape:zoom="1.038"
     inkscape:cx="250"
     inkscape:cy="250"
     inkscape:window-x="-8"
     inkscape:window-y="-8"
     inkscape:window-maximized="1"
     inkscape:current-layer="svg2" />
  <metadata
     id="metadata7">
    <rdf:RDF>
      <cc:Work
         rdf:about="">
        <dc:format>image/svg+xml</dc:format>
        <dc:type
           rdf:resource="http://purl.org/dc/dcmitype/StillImage" />
        <dc:title />
      </cc:Work>
    </rdf:RDF>
  </metadata>
  <defs
     id="defs5" />
  <g
     id="g2987">
    <path
       d="M 72.430324,426.80336 0,353.60672 0,249.87117 0,146.13561 73.062534,73.067807 146.12504,0 249.35846,0 352.59188,0 426.29594,72.937657 500,145.87532 l 0,103.99982 0,103.99982 -73.06781,73.06251 -73.0678,73.06253 -104.50188,0 -104.50189,0 z m 341.393746,-13.74593 66.82766,-67.5943 0,-95.46504 0,-95.46506 -67.33491,-68.101543 -67.33491,-68.101547 -95.84963,0 -95.84963,0 -67.976356,67.970667 -67.976354,67.970673 0,95.72302 0,95.72301 67.461494,67.46721 67.461476,67.46721 96.87175,0 96.87176,0 z M 91.901314,408.09279 26.47658,342.66215 l 0,-92.7946 0,-92.79461 66.064914,-65.298183 66.064916,-65.298177 91.39359,0 91.39359,0 66.06492,65.298177 66.06491,65.298183 0,92.79461 0,92.7946 -65.42473,65.43064 -65.42475,65.43063 -92.67394,0 -92.67394,0 z m 311.099726,-5.08566 63.39407,-63.38799 0,-89.61305 0,-89.61307 -63.38798,-63.394063 -63.38799,-63.394067 -90.12833,0 -90.12834,0 -62.870586,62.881867 -62.870594,62.881883 -0.02993,90.60658 -0.02991,90.60658 62.900514,62.90666 62.900506,62.90665 90.12226,0 90.12225,0 z"
       id="path1308"
       style="fill:#000000"
       inkscape:connector-curvature="0" />
    <path
       d="m 373.5538,92.501707 c -1.77741,0.09503 -2.86797,4.148551 -3.38848,5.601355 -1.20582,-0.343551 0.0428,-2.346024 -0.35052,-3.384156 -0.69733,-1.837864 -1.92497,-1.030171 -3.11584,-0.09727 -1.31675,1.032509 -3.87874,2.701717 -4.69323,4.123221 -0.52721,0.919856 -0.2047,1.311983 -0.89581,2.100503 -0.66865,0.76364 -1.32376,1.46444 -1.73318,2.41169 -1.6813,3.87863 0.86886,7.96903 3.68059,10.522 2.84102,2.57848 5.4915,3.68322 9.36699,3.96763 -0.99785,1.32478 -0.94025,2.13939 -0.35054,2.684 -1.11423,0.52332 -2.17946,1.21254 -3.23268,2.00324 -2.47521,1.85716 -4.69589,4.61894 -7.90645,5.17348 -7.95348,1.37481 -14.85865,0.87131 -22.18087,4.90116 -6.17184,3.39755 -11.87228,8.58782 -17.02027,13.34212 -2.0845,1.92375 -14.16538,13.81701 -12.87231,15.52045 -11.89254,12.94597 -20.3807,28.25976 -32.09313,41.2711 -2.27022,2.5231 -3.89434,4.74527 -6.64063,6.18482 -2.00162,1.05058 -3.84745,2.14751 -5.6864,3.46197 -7.19761,5.14577 -14.91335,10.63508 -22.86248,14.54794 -0.43746,-2.18452 0.4895,-4.82045 -1.28529,-6.55435 -0.21001,0.10141 -0.15999,0.31304 -0.37,0.46676 -0.30411,-0.56011 -0.87415,-1.21174 -1.07107,-1.71151 0.1103,0.4612 0.10496,1.10706 0.19474,1.6143 -1.07683,-2.09118 -2.3361,-3.77501 -4.42059,-4.7845 0.40879,0.72256 0.66133,1.39677 1.18792,2.11996 -1.63396,-1.81359 -1.91315,-4.43582 -3.97271,-5.93198 0.16765,0.49477 0.11888,1.02923 0.29213,1.53645 -1.68443,-1.27522 -2.75784,-2.76425 -4.47903,-4.0065 0.3309,0.36158 0.57985,0.74592 0.89579,1.12804 -1.04877,-0.75556 -2.01905,-1.63638 -3.19371,-1.88657 0.77894,0.53836 1.34026,1.09865 1.92791,1.80877 -1.97793,-0.65847 -3.43988,-2.78977 -5.14113,-3.92873 0.14021,0.38773 0.21888,0.86557 0.40896,1.3031 -0.70231,-0.95472 -1.40416,-1.83537 -2.35635,-2.3339 0.37326,0.62674 0.58079,1.21205 1.01263,1.82821 -0.63125,-0.69829 -1.73443,-1.63932 -2.90162,-1.86711 0.61757,0.64168 1.02885,1.36472 1.32422,2.31446 -0.95033,-1.2261 -3.27395,-3.05337 -2.3174,-0.38898 -0.89237,-0.89933 -1.83835,-1.22889 -2.18108,-0.27229 -1.15598,-0.95287 -2.64488,-1.20539 -1.49951,0.40844 -0.61008,-0.34232 -1.15456,-0.27588 -1.77213,-0.48625 0.40071,0.54457 0.4543,1.03688 1.01266,1.55594 -1.08494,-0.12324 -2.8725,-0.82573 -3.70007,-0.29173 0.88677,0.23773 1.57226,0.64913 2.41477,1.01135 -0.79079,0.16616 -1.68597,0.14081 -2.60949,-0.0584 0.45178,0.4064 0.61147,0.95301 1.26579,1.34199 -1.10176,-0.22966 -2.26894,-0.19247 -2.96004,0.52512 0.17074,0.15373 0.50524,0.16104 0.75949,0.29174 -0.41877,0.16805 -0.94129,0.5771 -1.36318,0.71963 0.59761,-0.0403 1.08743,0.0962 1.63581,0.11668 -4.11602,1.64308 -5.94534,-1.97946 -9.07488,-4.3177 -4.10979,-3.06955 -9.03204,-5.04636 -13.22283,-8.0325 -4.93113,-3.51392 -11.84815,-4.08449 -17.66293,-4.88174 -2.23156,-0.30621 -16.10857,-4.05336 -10.6328,2.04216 -4.55722,-1.84658 -4.6267,-5.16336 -10.39911,-4.29827 -5.77615,0.86573 -11.46256,2.03299 -17.21501,2.99517 -4.24814,0.71076 -9.14499,1.54302 -12.54126,4.37607 -1.91624,1.597 -5.78751,3.5024 -6.79642,5.64026 -1.34355,2.84486 0.0233,3.9007 -3.01847,6.02921 -1.8857,1.31944 -3.76315,2.60138 -5.82272,3.637 -1.14227,0.57508 -4.751183,1.33733 -5.394301,2.23666 -1.286216,1.79928 0.477659,4.10549 -1.051593,5.71804 -1.73802,1.8329 -3.135158,1.4646 -4.440073,3.9871 -2.720125,5.26151 0.234468,5.37525 4.693229,4.49275 1.854555,-0.36534 4.247205,-1.62861 6.192738,-1.38089 1.53672,0.19541 1.41396,1.25033 2.80425,1.71152 1.57911,0.52466 3.45531,-0.66236 5.12165,-0.56404 5.39977,0.31679 -2.04664,19.0787 -2.97952,22.38599 -3.64053,-0.84768 -4.62576,19.02903 -4.59585,22.09423 0.0978,9.90506 -0.94846,19.7854 0.38948,29.65996 0.32342,2.3868 1.12622,3.67604 1.81108,5.79586 0.9335,2.88407 0.35178,6.36252 1.67476,9.17999 1.57474,3.35646 2.06798,6.77903 3.07688,10.52198 1.30867,4.85761 3.98034,9.95579 5.93958,14.74246 3.74525,9.15201 11.12231,20.06111 19.94137,24.99217 0.55649,0.30994 2.72762,1.41527 3.19375,0.85575 0.58702,-0.70701 -4.24643,-3.22732 -4.77113,-3.61754 -4.25937,-3.16169 -7.32146,-7.39459 -10.10702,-11.84456 -5.89453,-9.41837 -9.74743,-19.00119 -11.58702,-29.97113 -0.85935,-5.12339 -0.99847,-10.25516 -1.03213,-15.44264 -0.0355,-5.55656 1.87262,-12.8156 0.38949,-18.08771 -0.77898,-2.76894 0.4155,-4.57213 0.83737,-7.41013 0.44682,-3.01228 0.55634,-6.29313 0.8374,-9.37449 0.41752,-4.5956 2.01064,-8.92842 3.38847,-13.36157 0.23555,0 1.18324,0.13101 1.38265,0.1945 0.29414,11.7174 1.80891,23.97146 4.34271,35.41691 2.18731,9.88015 5.76882,21.18822 10.30175,30.20454 4.74915,9.44698 12.07526,17.7373 18.87029,25.71176 4.05245,4.75803 1.8075,-3.42289 0.9737,-5.3485 -1.88756,-4.36098 -4.22244,-8.69705 -6.29009,-12.99205 -2.07641,-4.31367 -3.95854,-8.54595 -5.23851,-13.16706 -0.74407,-2.6843 -1.51414,-5.3182 -2.4732,-7.93528 -0.7771,-2.11793 0.0433,-4.62654 -0.42842,-6.82663 -1.88884,-8.80346 -1.77635,-17.46021 -2.8432,-26.47031 0.40256,2.52374 1.65652,3.85872 4.14795,4.35662 2.88651,0.57631 4.94981,-1.178 6.77693,1.34199 1.71373,2.36065 3.35966,4.78822 5.00484,7.19619 2.72947,3.99562 6.14847,6.71105 10.24331,9.25779 3.6418,2.26606 7.55715,2.69675 11.29492,4.3566 3.72592,1.65614 6.93289,4.49883 10.37963,5.87365 1.62024,0.64665 7.60701,5.28629 9.11384,4.49277 1.44762,-0.7593 -4.47357,-4.84082 -5.43324,-5.91255 -2.6223,-2.93014 -3.40421,-6.08308 -3.33006,-10.03576 0.0561,-3.00606 0.66664,-5.99034 2.55111,-8.40204 2.61167,3.95395 7.44372,7.80892 11.99596,9.3356 1.57662,0.52902 5.67567,1.50816 5.12165,-1.30311 2.47648,2.6065 7.02794,12.0924 5.04378,2.91739 -0.66368,-3.06831 1.33171,-6.09584 2.33687,-9.06331 4.89561,4.52713 8.85273,12.6477 14.64444,15.77326 -0.45864,-1.72709 -1.62194,-3.62703 -2.55109,-5.27072 1.42769,1.74515 3.9283,2.03143 5.74484,2.72289 1.91187,0.73004 3.3841,1.1335 4.79059,2.19776 1.24822,0.94476 2.12391,2.02441 3.6027,2.70343 -1.748,3.74917 3.33846,4.46242 4.14796,1.32253 1.28248,0.78856 2.37536,0.96997 3.09636,2.295 1.25257,2.3028 0.72693,3.81454 2.8432,5.91255 0.64499,0.6398 3.97037,3.96779 5.08271,3.2869 0.62692,-0.38399 0.28947,-3.31568 0.35054,-4.2399 3.16942,1.15387 5.2304,2.30464 8.43223,2.25611 -0.33463,1.76005 0.78458,1.57833 1.32424,2.10049 -0.57954,-0.56137 1.21346,0.38509 1.18792,0.36953 0.31969,0.17862 0.71943,0.99736 1.12948,1.28365 2.10631,1.47627 4.47512,2.80862 6.71853,4.02597 3.19559,1.73581 5.99719,3.7663 9.09436,5.56248 2.12002,1.23103 4.79698,1.47548 5.9006,3.55918 1.10675,2.0918 0.77181,5.93509 0.97372,8.34368 0.33402,4.01866 2.1292,11.5601 0.13631,15.34539 -1.0251,1.94741 -6.07324,1.51906 -6.36798,4.25937 -0.32841,3.05086 4.2168,2.37497 5.6669,3.88983 2.1998,2.29592 -1.09941,6.65954 -2.90161,9.04385 -2.70205,3.57304 -6.06263,12.42177 1.96687,11.80563 2.3936,-0.18297 1.91189,-0.72382 3.81691,0.70017 1.43951,1.0767 2.60795,2.99173 3.8948,4.27882 1.62273,1.62127 3.47509,1.49386 5.10219,2.35334 0.58889,0.31058 1.62771,1.25345 2.18108,1.71153 0.42312,0.34915 1.76045,0.27385 1.8695,0.77799 0.0659,0.30993 0.0158,1.32064 0.17528,1.47813 0.45678,0.44746 0.1885,2.07125 1.59687,1.32252 0.55024,-0.29312 0.6621,-2.70313 0.6621,-3.20909 0,-1.99224 0.61757,-3.43177 -0.77896,-5.29019 -1.3772,-1.83474 -3.67389,-1.62827 -5.18008,-3.13131 8.1691,2.66439 17.48921,-0.576 25.86145,0.81688 2.006,0.33172 4.10902,0.12477 5.90064,0.42787 1.17777,0.20104 5.23724,2.69644 5.62797,1.90603 1.61526,-3.26249 -8.45295,-7.04372 -9.93173,-7.27399 -4.3709,-0.67963 -9.17832,-0.55096 -13.59284,-0.48623 -3.6904,0.0541 -6.45119,-1.20508 -10.14595,-1.88657 2.32565,-1.99721 4.81833,-3.44951 7.01063,-5.64027 1.01763,-1.01633 2.17516,-3.00014 -0.35053,-2.37279 -4.75041,1.17628 -8.63336,4.1016 -13.63179,5.07623 0.44369,-6.60151 0.66694,-13.21904 0.95422,-19.81868 0.16452,-3.77157 0.75778,-7.52262 1.09055,-11.28052 0.14269,-1.62562 0.13834,-3.83551 0.77895,-5.3485 0.81012,-1.90757 -0.15594,-1.92719 1.53845,-1.36144 5.01464,1.67541 -0.10937,8.74013 2.06424,11.14435 1.41833,1.56901 5.27169,-1.02241 6.58221,-2.00327 -0.51288,2.51066 -0.23835,4.81592 1.51898,6.22374 0.73596,0.59 1.70575,-0.11995 2.43425,0.64183 0.12213,0.12758 0.42204,2.64119 0.64263,3.09242 1.38033,2.83551 -0.44572,3.51111 -0.56475,6.4182 -0.11153,2.65255 1.22968,4.77345 1.96689,7.21564 0.35459,1.17816 -0.96171,4.0697 0.0585,4.59 1.47004,0.75495 3.88545,-3.60308 4.12849,-4.53165 0.68174,-2.6121 -0.40381,-5.85342 0,-8.63542 0.65744,-4.53896 1.04457,-6.36657 -1.14897,-10.38585 2.2864,2.41792 5.1567,4.74979 5.99798,8.07139 0.41628,1.64183 0.12028,3.2838 0.77896,4.92064 0.61196,1.52356 1.82604,2.55126 2.12267,4.06487 0.33588,1.71028 -1.19352,5.21145 1.30476,3.07297 2.36242,-2.02146 1.64578,-7.86819 1.48002,-10.44419 -0.42,-6.49073 -3.11318,-12.30928 -7.53643,-16.72628 -6.58129,-6.56478 -13.31616,-12.9385 -20.99296,-18.20441 2.67837,-3.63403 3.8236,-8.21283 6.29008,-12.05848 2.51262,-3.91534 5.43839,-7.47111 8.95804,-10.52198 2.69521,-2.33576 5.61195,-3.36206 7.59486,-6.37933 2.1275,-3.23881 4.91135,-4.57131 8.43225,-6.5349 8.03512,-4.48172 14.76239,-11.04278 21.20719,-17.50425 3.13951,-3.14796 5.87365,-5.99732 7.67273,-9.8996 1.31489,-2.85358 2.37894,-5.61973 3.85586,-8.44094 4.37588,-8.36719 7.8114,-17.12318 11.84018,-25.65343 3.22053,-6.82059 5.31547,-14.03528 5.51113,-21.56911 0.23371,-8.92297 -3.10881,-16.7896 -4.49848,-25.57565 -0.52533,-3.32159 0.97292,-6.07419 1.73319,-9.23835 1.16011,-4.8311 1.08953,-9.753 1.38265,-14.64519 0.0551,0.0159 0.0989,0.0435 0.1558,0.0584 3.77452,0.97152 10.09235,1.61086 12.9502,-1.38089 1.9368,-2.02829 4.05449,-3.58889 5.55008,-6.02925 1.40524,-2.29155 1.95941,-4.76472 2.43425,-7.37121 0.33278,-1.82915 0.55026,-4.82511 -0.54526,-6.43767 -0.5191,-0.76427 -1.27936,-0.46336 -1.86951,-0.89467 -0.57144,-0.41885 -0.80296,-1.51858 -1.28529,-2.2561 -0.15576,-0.23927 -0.31301,-0.42882 -0.46737,-0.62237 0.18288,-0.68644 0.071,-1.68395 1.03213,-1.78932 1.87448,-0.20538 3.75926,-0.35009 5.64745,-0.1945 1.48064,0.12199 3.27584,1.21286 4.3427,1.3031 0.75403,0.0634 0.19412,1.25097 1.20739,0.23339 0.511,-0.51221 0.5018,-1.70064 0.40895,-2.3728 -0.48981,-2.17582 -1.77463,-4.08758 -3.40795,-5.5819 -0.81199,-0.74374 -1.72602,-1.43458 -2.70689,-1.94492 -0.5783,-0.3006 -1.87245,-0.50553 -2.23949,-1.0308 -0.19827,-0.29024 -0.16131,-0.45784 -0.0974,-0.64184 0.006,-0.007 0.0137,-0.0129 0.0194,-0.0194 0.56635,-0.62927 1.97807,0.0116 2.88216,-0.89467 1.2052,-1.2074 1.2376,-3.64103 1.32422,-5.23183 -0.14458,-2.41231 -0.69093,-5.65627 -3.79743,-5.2318 0.21443,-2.56106 -0.0752,-4.92342 -1.30469,-7.21562 -0.43621,-0.81531 -0.96498,-0.4909 -1.59686,-0.99192 -0.99896,-0.78916 -0.80172,-2.54782 -0.89581,-3.94817 -0.0386,-0.5707 0.007,-1.48265 -0.74001,-1.57537 -0.45803,-0.0566 -1.18525,0.21627 -1.24634,0.73907 -0.1614,1.40095 -0.40148,2.78853 -0.72054,4.16211 -0.16763,0.7232 -0.35505,2.34947 -1.30475,1.16694 -0.59949,-0.74809 0.0738,-1.71619 0.27264,-2.52838 0.32279,-1.32068 0.45973,-2.81156 0.21421,-4.16212 -0.41753,-2.31398 -1.16487,-4.77702 -2.97952,-6.418214 -0.53281,-0.480486 -1.34106,-1.078732 -2.10319,-0.953013 -0.94597,0.154343 -0.68113,1.114513 -1.09055,1.614277 -1.35166,1.65426 -2.07655,3.8903 -2.43425,5.9709 -0.3577,-2.6426 -1.00392,-5.39208 -0.85685,-8.071415 0.0735,-1.338721 1.28683,-6.324394 -1.7916,-5.659697 -1.8907,0.408886 -3.24796,4.96031 -3.81691,6.534919 -0.58704,1.629983 -1.42877,2.978363 -2.39531,4.395513 -0.43435,-1.9723 -0.99972,-3.96748 -1.2658,-5.970911 -0.18695,-1.402809 0.1212,-3.465686 -0.97371,-4.551094 -0.48571,-0.481016 -0.93351,-0.663749 -1.3437,-0.641825 z m 6.62117,38.353723 c 0.19182,-0.009 0.39221,0.005 0.60369,0.0389 3.94714,0.65722 2.88028,6.51795 -1.09053,5.58189 -3.01752,-0.71241 -2.39053,-5.49121 0.48684,-5.6208 z m 0.79843,0.81687 c -1.17162,0.01 -2.0954,1.91151 -1.28527,2.99517 0.27232,0.36285 0.55756,0.54379 0.83737,0.60291 1.30678,0.27511 2.46556,-2.28287 1.28527,-3.26744 -0.27843,-0.23246 -0.567,-0.33281 -0.83737,-0.33064 z"
       id="path5"
       style="fill-rule:evenodd"
       inkscape:connector-curvature="0" />
  </g>
</svg>
